<?xml version="1.0" standalone="no"?>
<!DOCTYPE svg PUBLIC "-//W3C//DTD SVG 1.1//EN" "http://www.w3.org/Graphics/SVG/1.1/DTD/svg11.dtd" >
<svg xmlns="http://www.w3.org/2000/svg" xmlns:xlink="http://www.w3.org/1999/xlink" version="1.1">
<metadata></metadata>
<defs>
<font id="edamameregular" horiz-adv-x="518" >
<font-face units-per-em="1000" ascent="750" descent="-250" />
<missing-glyph horiz-adv-x="400" />
<glyph unicode=" "  horiz-adv-x="400" />
<glyph unicode="&#x09;" horiz-adv-x="400" />
<glyph unicode="&#xa0;" horiz-adv-x="400" />
<glyph unicode="!" horiz-adv-x="299" d="M129 182l-41 392q5 2 24 11.5t44 20t55 19.5l-25 -482zM208 52v-70l-111 28v97z" />
<glyph unicode="&#x22;" horiz-adv-x="221" d="M47 544l-14 135h65l-15 -135h-36zM137 544l-14 135h65l-15 -135h-36z" />
<glyph unicode="#" horiz-adv-x="656" d="M477 509l-17 -134h130l-6 -66h-132q-2 -15 -6.5 -48t-6.5 -54h130l-7 -66h-131l-17 -136h-70l17 136h-97l-17 -136h-67l17 136h-131l7 66h131l14 102h-130l6 66h132q2 14 5.5 42.5t6 51.5t4.5 40h68l-17 -134h97q2 16 8.5 64t8.5 70h70zM369 207l14 102h-98 q-2 -15 -6.5 -48t-6.5 -54h97z" />
<glyph unicode="$" horiz-adv-x="699" d="M478 720l-12 -75q75 -21 139 -71l-89 -84q-41 32 -67 51l-26 -160q81 -28 140 -73.5t58 -92.5q-1 -72 -41 -121t-86 -70q-52 -23 -134 -28l-13 -68l-42 41l3 26q-138 7 -231 73l91 84q3 -2 16 -9.5t17 -9.5t15.5 -8t16.5 -8.5l15 -7.5t17 -7.5t16.5 -5.5t18.5 -5.5 t19 -4.5l25 209q-109 36 -143 49q-56 22 -76.5 75.5t-0.5 110t74 87.5q79 47 190 40l2 14zM214 528q-3 -29 7 -50.5t33.5 -36.5t45.5 -23t57 -18l22 179q-17 6 -33 9q-24 2 -52 1t-52.5 -17.5t-27.5 -43.5zM538 207q-16 28 -132 67l-32 -194h19q89 10 126 51t19 76z" />
<glyph unicode="%" horiz-adv-x="704" d="M301 596q10 -42 3 -81q-12 -55 -53.5 -87t-87.5 -22t-70 56.5t-12 101.5t53.5 87t87.5 22q57 -12 79 -77zM176 455q25 -5 48 16t29 51q7 29 -5.5 53.5t-37.5 29.5q-26 5 -47.5 -11.5t-27.5 -45.5q-4 -21 -3.5 -40t12 -34t32.5 -19zM105 58l434 622l78 -70l-456 -603z M621 196q10 -42 3 -81q-12 -55 -53.5 -87t-87.5 -22t-70 56.5t-12 101.5t53.5 87t87.5 22q57 -12 79 -77zM495 55q25 -5 47.5 16t28.5 52q7 29 -5.5 53.5t-36.5 29.5q-25 5 -46.5 -11.5t-27.5 -45.5q-8 -34 1 -61t39 -33z" />
<glyph unicode="&#x26;" horiz-adv-x="632" d="M299 401l-17 -55q4 -128 109 -214q13 12 20.5 25t9.5 21t6 28l77 -13q1 -9 -1.5 -22.5t-15.5 -39t-36 -47.5q13 -14 47.5 -15.5t56.5 13.5v-82q-98 -8 -144 44q-51 -32 -124 -37q-85 -7 -153 48t-68 139q0 58 37.5 105.5t92.5 67.5q-46 22 -73 61.5t-27 88.5 q0 73 53.5 115.5t128.5 45.5l17 -103q-50 -2 -82 -25t-32 -60q0 -39 34.5 -63.5t83.5 -25.5zM283 69q37 3 62 19q-49 33 -75.5 84t-31.5 98q-39 -10 -61.5 -37.5t-19.5 -67.5q4 -49 40.5 -74.5t85.5 -21.5z" />
<glyph unicode="'" horiz-adv-x="131" d="M47 544l-14 135h65l-15 -135h-36z" />
<glyph unicode="(" horiz-adv-x="266" d="M233 595q-66 -66 -94 -179q-17 -56 -21 -131t5.5 -147.5t37 -136t69.5 -93.5l-59 -63q-62 57 -97 157q-38 111 -40 249.5t28 251.5q36 146 110 231z" />
<glyph unicode=")" horiz-adv-x="299" d="M33 595l61 139q74 -85 110 -231q30 -113 28 -251.5t-40 -249.5q-35 -100 -97 -157l-59 63q42 30 69.5 93.5t37 136t5.5 147.5t-21 131q-28 113 -94 179z" />
<glyph unicode="*" horiz-adv-x="539" d="M116 610l87 63l78 -194l88 195l95 -51l-146 -163l177 -20l-20 -106l-170 77l32 -191l-108 -9l31 211l-155 -124l-61 90l197 74z" />
<glyph unicode="+" horiz-adv-x="484" d="M212 317l-8 148h73l-4 -150l134 -4v-43l-136 -8l-4 -169h-43l-9 165l-138 -8v73z" />
<glyph unicode="," horiz-adv-x="269" d="M192 55l-84 -204l-78 44l79 116l-62 4q34 85 50 108z" />
<glyph unicode="-" d="M441 268l-364 -20v73l364 -10v-43z" />
<glyph unicode="." horiz-adv-x="243" d="M55 -18v80l111 55v-107z" />
<glyph unicode="/" horiz-adv-x="578" d="M33 55l434 622l78 -70l-456 -603z" />
<glyph unicode="0" horiz-adv-x="679" d="M55 339q0 139 80 237t193 98t193.5 -98t80.5 -237t-80.5 -239t-193.5 -100t-193 100t-80 239zM156 303q0 -93 57.5 -165t128.5 -72q70 0 120 71t50 166q0 106 -43 182.5t-129 73.5q-85 -4 -134.5 -79.5t-49.5 -176.5z" />
<glyph unicode="1" horiz-adv-x="429" d="M50 551q135 79 309 128l-69 -679l-47 19l-13 583l-103 -164z" />
<glyph unicode="2" horiz-adv-x="565" d="M107 476l-30 72q47 69 139 114q36 15 81.5 14.5t87.5 -14.5t73 -47t36 -79q8 -65 -36.5 -134.5t-132.5 -131.5q-99 -69 -160 -129.5t-65 -84.5l317 69l-5 -125q-82 8 -226 8q-129 2 -131 3l-5 49q12 44 77 127t148 155q107 91 94 166q-8 48 -61 62q-67 18 -140 -33 q-33 -24 -61 -61z" />
<glyph unicode="3" horiz-adv-x="486" d="M292 353q17 -8 34.5 -19t39 -30.5t35 -47.5t14.5 -61q2 -57 -61 -121.5t-137 -71.5q-112 -11 -167 65l52 55q26 -35 63 -45.5t69 1t56 37t27 57.5q2 21 0 37t-7 29t-12.5 22t-16.5 16t-18 11.5t-17.5 7t-15 4t-10.5 1.5l-4 1l-2 76q73 29 95 96q18 55 -10 89 q-34 40 -101 2q-33 -20 -70 -59l-66 40q61 86 119 116q29 15 68.5 17t76 -8t62.5 -38t27 -69q2 -50 -31.5 -111t-91.5 -99z" />
<glyph unicode="4" horiz-adv-x="617" d="M233 580l-101 -190l249 -57l-23 296l18 8q43 21 120 43l-23 -367l74 -17v-42l-78 7l-16 -261l-47 19l-20 250l-336 32l92 376z" />
<glyph unicode="5" horiz-adv-x="522" d="M114 420q46 -4 96 -15t108.5 -32.5t95.5 -59.5t37 -86q0 -72 -56.5 -135t-131.5 -83q-88 -23 -178 16l19 59q75 -22 153 6.5t82 91.5q1 22 -2 40t-16.5 40.5t-38 39.5t-70.5 32t-109 22l-53 31l39 243l343 50l2 -127l-253 21z" />
<glyph unicode="6" horiz-adv-x="568" d="M50 238q0 46 8 79l144 362h147l-169 -230q43 20 94 20q98 0 161 -68t63 -164q0 -99 -64.5 -165.5t-159.5 -66.5q-99 0 -161.5 68t-62.5 165zM137 209q0 -67 39.5 -108t103.5 -40q59 2 101 44.5t42 103.5q0 69 -40 114t-103 45q-64 0 -103.5 -47t-39.5 -112z" />
<glyph unicode="7" horiz-adv-x="523" d="M271 315l-115 -8v113l138 -26l52 185l-312 -12l-4 115l453 -57l-98 -247l45 -8v-43l-67 -5l-128 -322l-47 19z" />
<glyph unicode="8" horiz-adv-x="558" d="M488 191q0 -84 -67 -136t-151 -52q-87 0 -153.5 53t-66.5 135q0 77 63 133q29 25 67 40q-46 22 -73 61.5t-27 88.5q0 76 56.5 122.5t132.5 46.5q79 0 134 -47t55 -122q0 -49 -28 -89.5t-72 -60.5q37 -13 68 -41q62 -54 62 -132zM353 276q-36 22 -76 25.5t-64.5 -4.5 t-37.5 -20q-40 -35 -40 -95q0 -58 38.5 -90.5t91.5 -32.5q52 0 90 34t38 89q0 59 -40 94zM197 414q42 -22 84.5 -23.5t74.5 26.5t32 76t-32.5 77.5t-78.5 29.5q-48 0 -80 -30t-32 -77q0 -52 32 -79z" />
<glyph unicode="9" horiz-adv-x="568" d="M498 446q0 -46 -8 -79l-144 -362h-147l169 230q-43 -20 -94 -20q-98 0 -161 68t-63 164q0 99 64.5 165.5t159.5 66.5q99 0 161.5 -68t62.5 -165zM411 435q0 67 -39.5 108t-103.5 40q-58 -1 -95.5 -43.5t-37.5 -104.5q0 -71 35.5 -115t97.5 -44q64 0 103.5 47t39.5 112z " />
<glyph unicode=":" horiz-adv-x="243" d="M55 -18v80l111 55v-107zM55 332v80l111 55v-107z" />
<glyph unicode=";" horiz-adv-x="269" d="M55 332v80l111 55v-107zM192 55l-84 -204l-78 44l79 116l-62 4q34 85 50 108z" />
<glyph unicode="&#x3c;" horiz-adv-x="517" d="M462 453l-377 -138l377 -137l-53 -98l-376 219v33l376 219z" />
<glyph unicode="=" horiz-adv-x="414" d="M359 368l-304 -20v73l304 -10v-43zM359 254l-304 -20v73l304 -10v-43z" />
<glyph unicode="&#x3e;" horiz-adv-x="528" d="M33 178l367 138l-367 137l53 98l376 -219v-33l-376 -219z" />
<glyph unicode="?" horiz-adv-x="501" d="M145 163l-5 132q6 2 59.5 9t94.5 28.5t55 66.5q0 51 -25.5 79.5t-62 32t-74.5 -7.5t-65 -35l-34 119q62 39 158 30q85 -8 130.5 -64t33.5 -150q-10 -48 -39 -80.5t-58.5 -44t-52.5 -20t-23 -15.5l-17 -119zM251 52v-70l-111 28v97z" />
<glyph unicode="@" horiz-adv-x="1033" d="M385 368l7 93q42 0 89.5 -12t97 -36.5t86 -71t44.5 -107.5q11 -84 9 -167q21 10 46 30q85 76 85 199q0 79 -40.5 137t-105 84t-138 31t-145.5 -16t-123 -62q-132 -107 -132 -283q0 -149 99 -235.5t247 -86.5q93 0 194 48l20 -63q-105 -48 -211 -48q-175 0 -296 89 q-72 56 -112 135t-40 171q0 160 93 277q74 92 193 136t243.5 30t215.5 -84q123 -96 123 -242q0 -168 -116 -262q-55 -42 -153 -49q3 20 5 52q-48 -38 -124.5 -50.5t-131.5 4.5q-54 15 -81.5 60.5t-19.5 96.5q17 104 128 136q50 14 102 8.5t89 -27.5q-64 85 -247 85zM667 121 q0 44 -11 95q-18 16 -54 27q-89 26 -155 -21q-50 -36 -46 -84q3 -36 40 -59q35 -25 111 -12.5t115 54.5z" />
<glyph unicode="A" horiz-adv-x="635" d="M20 26l322 652l273 -653l-139 -21q-26 75 -57 162l-246 29l-107 -195zM302 430l-107 -195l182 44q-65 170 -75 151z" />
<glyph unicode="B" horiz-adv-x="588" d="M443 454q63 5 84.5 -27t-3.5 -93q-25 -59 -60.5 -108.5t-70 -81.5t-77.5 -58.5t-74 -40.5t-68.5 -25t-52 -13.5t-32.5 -5.5q-5 -1 -6 -1l-52 575l-1 17l15 9q12 7 38.5 18.5t84 29.5t112 25.5t115 -4t100.5 -48.5q33 -36 15.5 -84.5t-67.5 -83.5zM159 583 q-19 -8 -25 -261q137 61 177 86q96 60 89 126q-4 38 -44 56t-93.5 15t-103.5 -22zM130 70q213 96 267 205q29 58 2 90q-18 20 -44 10l-223 -111z" />
<glyph unicode="C" horiz-adv-x="553" d="M503 554l-56 -44q-38 52 -115 50q-85 -2 -143 -69q-79 -94 -47 -260q12 -64 45 -109.5t75 -62t92.5 12t92.5 105.5l51 -17q-35 -86 -82.5 -122t-94.5 -38q-68 -3 -122.5 18.5t-88 61.5t-55 93.5t-23.5 115t7 125.5q22 117 111 197t204 63q31 -5 55.5 -17t42 -30.5 t28.5 -34.5t23 -38z" />
<glyph unicode="D" horiz-adv-x="575" d="M443 662q44 -21 64 -71.5t18 -103t-17 -101.5q-15 -48 -44.5 -95t-60.5 -82t-74 -71t-72 -56.5t-67.5 -43t-47 -26.5t-23.5 -12l-38 22l-49 559l-2 19l18 8q10 5 33.5 14t73.5 24t97.5 24.5t101 9t89.5 -17.5zM131 57q260 152 270 374q4 102 -64 151t-162 5 q-10 -9 -21 -141.5t-17 -260.5z" />
<glyph unicode="E" horiz-adv-x="550" d="M149 317q-8 -109 -14 -277l305 153q-3 -121 -5 -135q-1 -5 -76.5 -18.5t-150.5 -24.5l-75 -11l-53 -4l-49 584l-1 15l12 9l1 1q90 61 200 69q139 10 257 -78l-80 -87q-128 98 -226 91q-24 -1 -43 -252l201 59l-6 -112z" />
<glyph unicode="F" horiz-adv-x="520" d="M149 316q-6 -87 -16 -312l-53 -4l-49 584l-1 15l12 9l1 1q90 61 200 69q139 10 257 -78l-80 -87q-128 98 -226 91q-24 -1 -43 -247l201 59l-6 -112z" />
<glyph unicode="G" horiz-adv-x="580" d="M455 522q-28 26 -74.5 33.5t-94.5 -6t-88.5 -52t-57 -104.5t0.5 -162q11 -56 39 -101.5t68 -63.5q48 -23 105.5 0t89.5 75t11 104l-141 -30q-4 6 -9.5 60t-5.5 64l217 -33q19 -50 12 -101t-34.5 -90.5t-70 -70.5t-93.5 -39.5t-104 2.5q-112 28 -161.5 147t-25.5 260 q22 117 111 197t204 63q59 -9 98 -46t55 -80z" />
<glyph unicode="H" horiz-adv-x="675" d="M514 5l-18 297l-342 21q-4 -83 -13 -318l-53 -4l-48 611q1 1 9.5 7t15.5 11t20.5 13t26.5 14t32 13t39 12q-14 -85 -27 -314l333 59l-15 254q20 -5 38.5 -11.5t32 -13t26.5 -14.5t20 -12.5t15 -10.5t9 -7l-48 -611z" />
<glyph unicode="I" horiz-adv-x="328" d="M277 657l1 -22l-33 -13l-41 -538l46 13l28 -97l-247 22l-1 22l109 21l-33 521l-48 -14l-28 107z" />
<glyph unicode="J" horiz-adv-x="550" d="M229 0q-72 0 -129.5 73.5t-66.5 148.5q-10 73 21 84l167 13q0 -9 -5.5 -53.5t-9.5 -50.5l-126 42q-2 -50 30.5 -99.5t83 -76t94.5 -15.5q33 9 50.5 40t15.5 74l-26 396l-48 -14l-28 117l247 -32l1 -22l-33 -13l-36 -451q-23 -161 -202 -161z" />
<glyph unicode="K" horiz-adv-x="593" d="M177 681q-5 -23 -9.5 -72.5t-7.5 -92.5t-7.5 -117t-6.5 -103l319 381l78 -104l-301 -258l295 -220l-80 -95l-257 280l-58 -48q-6 -103 -11 -227l-53 -4l-48 611q74 52 147 69z" />
<glyph unicode="L" horiz-adv-x="533" d="M176 681q-9 -56 -16.5 -149.5t-11 -150.5t-9.5 -183.5t-6 -132.5l338 66l12 -129l-356 2l-49 -3l-48 611q75 52 146 69z" />
<glyph unicode="M" horiz-adv-x="710" d="M521 581l-170 -382h-13l-166 381q-7 -66 -12 -143.5t-7.5 -134t-6 -150.5t-5.5 -147l-53 -4l-48 611q73 51 144 68l161 -305l164 305q19 -5 38 -11.5t32 -12.5t26.5 -14t20 -12.5t15.5 -11.5l9 -6l-48 -611l-53 4q0 3 -2 84.5t-8 202.5t-18 289z" />
<glyph unicode="N" horiz-adv-x="691" d="M520 188q-3 47 -5.5 151t-8 188t-17.5 154q20 -5 38.5 -11.5t32 -13t27 -14.5t20.5 -12.5t15 -10.5t9 -7l-48 -611l-53 4l-360 588q-7 -66 -12 -148t-7 -136.5t-5.5 -159t-4.5 -144.5l-53 -4l-48 611l9 6q9 7 15.5 11.5t20.5 12.5t27 14.5t32 13t39 11.5z" />
<glyph unicode="O" horiz-adv-x="722" d="M38 414q15 81 66.5 149t124.5 97q46 19 132 17.5t133 -24.5q65 -32 110 -96.5t60 -140.5q23 -133 -23 -244t-151 -151q-51 -19 -130.5 -21.5t-132.5 14.5q-112 36 -162.5 148.5t-26.5 251.5zM302 553q-103 -28 -138 -114.5t-12 -208.5q15 -77 61.5 -120.5t108.5 -51.5 q79 -10 144.5 36t84.5 137q33 164 -37.5 250.5t-211.5 71.5z" />
<glyph unicode="P" horiz-adv-x="559" d="M482 593q40 -55 20 -112.5t-92 -113.5q-35 -27 -95 -52t-118 -43t-68 -23q-3 -157 -3 -235q-39 -13 -48 -13l-48 652q14 8 64.5 16.5t119 11.5t144.5 -19t124 -69zM159 623q-21 -1 -29 -305q108 24 182 74t75 113q-4 37 -44 66t-90.5 42t-93.5 10z" />
<glyph unicode="Q" horiz-adv-x="722" d="M38 414q15 81 66.5 149t124.5 97q46 19 132 17.5t133 -24.5q65 -32 110 -96.5t60 -140.5q18 -104 -6.5 -196t-87.5 -149l79 -108l-111 -67l-56 122q-52 -17 -128 -18.5t-127 14.5q-112 36 -162.5 148.5t-26.5 251.5zM374 257l43 26l101 -140q31 40 43 90q20 86 8.5 149.5 t-48.5 104t-93.5 57.5t-125.5 9q-70 -19 -112.5 -67t-52 -112.5t3.5 -142.5q12 -60 46 -101.5t78 -58.5t94 -13.5t93 27.5z" />
<glyph unicode="R" horiz-adv-x="562" d="M484 593q40 -55 20 -112.5t-92 -113.5q-48 -38 -163 -78l263 -191l-85 -98l-245 267l-51 -18q-3 -157 -3 -235q-39 -13 -48 -13l-49 635l-1 17l15 9q6 3 37 9t83.5 9t108 -1t113.5 -26t97 -60zM161 623q-21 -1 -29 -305q108 24 182 74t75 113q-4 37 -44 66t-90.5 42 t-93.5 10z" />
<glyph unicode="S" horiz-adv-x="613" d="M131 361q-55 23 -76 78t-0.5 113t73.5 90q44 27 106 38.5t145.5 -7t152.5 -75.5l-88 -87q-55 47 -93 71t-76 30q-24 2 -52 1t-52 -18t-27 -45q-3 -31 8.5 -54.5t36 -38t50 -23.5t60.5 -19q13 -3 19 -5q89 -26 160 -77t70 -105q-1 -75 -41 -125.5t-85 -71.5 q-52 -24 -122 -30.5t-150 12t-142 63.5l90 87q48 -29 68 -39.5t63 -22.5t93 -13q88 10 125 52.5t19 78.5q-12 21 -65 44t-141.5 52.5t-128.5 45.5z" />
<glyph unicode="T" horiz-adv-x="581" d="M25 571l-5 50l529 73l12 -119l-201 -2q-17 -151 -32 -568l-53 -4l-45 571z" />
<glyph unicode="U" horiz-adv-x="746" d="M569 313l-26 368q20 -5 39 -11.5t32 -13t27 -14.5t20.5 -12.5t15.5 -11.5l9 -6l-24 -307q-17 -96 -27 -124q-42 -119 -147 -160q-51 -19 -115 -21.5t-118 14.5q-108 34 -156 149q-23 58 -35 145l-24 304l9 6q9 7 15.5 11.5t20.5 12.5t27 14.5t32 13t39 11.5 q-18 -82 -20 -219.5t16 -230.5q12 -61 40 -102t63.5 -56t75.5 -15t78 21.5t68.5 53t48 79t16.5 101.5z" />
<glyph unicode="V" horiz-adv-x="637" d="M617 660l-298 -660q-21 54 -135 310.5t-164 359.5l96 14l192 -476l170 473z" />
<glyph unicode="W" horiz-adv-x="917" d="M897 660l-298 -660q-43 111 -133 329l-147 -329q-21 54 -135 310.5t-164 359.5l96 14l192 -476l96 270l-84 192l106 14l162 -476l170 473z" />
<glyph unicode="X" horiz-adv-x="644" d="M603 115l-31 -114q-8 14 -42.5 54t-100 114.5t-110.5 127.5l-279 -297q-2 29 -4 48.5t-3 28t-1 12.5l222 284q-48 56 -130 147.5t-104 118.5l102 36l179 -239l196 251l127 -61l-252 -270q42 -47 87.5 -94t88.5 -91t55 -56z" />
<glyph unicode="Y" horiz-adv-x="644" d="M624 626l-269 -279q-13 -203 -18 -343l-53 -4l-30 372v1l-234 266l112 36l169 -259l196 271z" />
<glyph unicode="Z" horiz-adv-x="593" d="M543 599l-5 -53l-437 -487l430 72l12 -129l-495 -3l-18 100l355 451l-342 2l12 129z" />
<glyph unicode="[" horiz-adv-x="305" d="M272 -178l-205 -1l-23 837l216 111l12 -129l-133 -2l-17 -747l138 60z" />
<glyph unicode="\" horiz-adv-x="578" d="M111 677l434 -622l-56 -51l-456 603z" />
<glyph unicode="]" horiz-adv-x="327" d="M238 -179l-205 1l12 129l138 -60l-17 747l-133 2l12 129l216 -111z" />
<glyph unicode="^" horiz-adv-x="559" d="M417 358l-138 227l-137 -227l-98 53l219 266h33l219 -266z" />
<glyph unicode="_" horiz-adv-x="363" d="M362 -182l-362 -20v73l362 -10v-43z" />
<glyph unicode="`" horiz-adv-x="254" d="M220 479l-30 -27l-135 156l97 70z" />
<glyph unicode="a" horiz-adv-x="515" d="M104 368l7 103q41 0 90.5 -13.5t101 -40t89.5 -74.5t46 -109q17 -136 -7 -234l-47 3q3 20 5 52q-48 -38 -124.5 -50.5t-131.5 4.5q-54 15 -81.5 60.5t-19.5 96.5q17 104 128 136q50 14 102 8.5t89 -27.5q-64 85 -247 85zM386 121q0 44 -11 95q-18 16 -54 27 q-89 26 -155 -21q-50 -36 -46 -84q3 -36 40 -59q35 -25 111 -12.5t115 54.5z" />
<glyph unicode="b" horiz-adv-x="556" d="M77 19l-47 607q4 2 20 9t30 12.5t37 14t47 15.5l-15 -254q90 49 193 13q126 -47 143 -194q4 -72 -24.5 -131t-86.5 -87q-56 -28 -126 -22.5t-121 45.5l-3 -47zM181 383q-24 -11 -36 -19l-15 -266q45 -42 102.5 -44t95.5 33q49 42 55 104.5t-20 112t-77 76t-105 3.5z" />
<glyph unicode="c" d="M429 371l-27 -50q0 1 -5 7.5t-6.5 8.5t-6 8.5t-7.5 9.5l-8.5 8.5t-10 8.5t-10.5 6.5t-12 5.5q-39 15 -73.5 4t-65 -34.5t-48.5 -60t-24 -74.5t8 -76.5t47 -66.5q20 -17 66 -21t99 17t77 69l26 -25q-22 -43 -59 -71t-79 -38t-85.5 -6t-80.5 22q-60 29 -90 88.5t-22 130.5 q9 73 55.5 125.5t106 71.5t125 3t110.5 -71z" />
<glyph unicode="d" horiz-adv-x="557" d="M398 19l-3 33q-52 -44 -124 -50.5t-129 22.5q-58 28 -86.5 87t-24.5 131q17 147 143 194q102 36 192 -13l-15 203q96 39 136 51l-42 -677zM188 87q38 -36 98 -32.5t105 49.5l-20 260q-6 4 -36 19q-54 23 -105 -3.5t-77 -76t-20 -112t55 -104.5z" />
<glyph unicode="e" horiz-adv-x="521" d="M425 141l26 -25q-29 -57 -83.5 -87.5t-111 -28.5t-109.5 24q-60 29 -90.5 85t-25.5 128q5 64 46.5 120t101.5 78q68 26 142.5 9.5t106.5 -68.5q35 -56 -10.5 -110t-126 -84t-156.5 -32q13 -47 48 -73q32 -24 79.5 -25.5t93 22t69.5 67.5zM130 197q0 -11 78 19t143 72.5 t39 64.5q-43 36 -91 38t-84.5 -23t-60.5 -71t-24 -100z" />
<glyph unicode="f" horiz-adv-x="386" d="M1 414l-1 35l91 12l-3 42q-2 64 28 105.5t78.5 55t99.5 13.5t102 -12v-89q-76 9 -131.5 -13t-63.5 -86l152 21l18 -77l-174 -3q-5 -77 -10 -171.5t-8.5 -167.5t-3.5 -79l-1 -1l-46 20l-33 397z" />
<glyph unicode="g" horiz-adv-x="583" d="M513 404l-34 -437q-16 -70 -57 -111q-35 -32 -94.5 -49t-115.5 -16t-109 7l9 87q18 -5 38 -9t53 -9t63 -3t60 9.5t52 28t32 51.5l-6 107q-52 -49 -127.5 -58t-134.5 22q-58 28 -86.5 87t-24.5 131q17 147 143 194q52 18 105.5 13t96.5 -31l-5 37q62 -18 142 -51zM400 113 q-12 179 -18 243q-19 15 -47 27q-54 23 -105 -3.5t-77 -76t-20 -112t55 -104.5q41 -38 104 -32t108 58z" />
<glyph unicode="h" horiz-adv-x="524" d="M77 19l-47 607q80 33 142 51q-11 -59 -26 -284q53 49 121 57q57 7 114.5 -25.5t65.5 -87.5q5 -39 6 -122.5t-1 -148.5l-1 -64l-56 20q0 29 -1 73t-15 128.5t-39 106.5q-34 33 -92 25.5t-108 -58.5q-12 -189 -16 -297z" />
<glyph unicode="i" horiz-adv-x="242" d="M77 19l-47 387q80 33 142 51q-12 -79 -28.5 -243t-19.5 -214zM29 552v70l111 55v-97z" />
<glyph unicode="j" horiz-adv-x="240" d="M170 404l-34 -437q-16 -70 -57 -111q-42 -38 -119 -55v63q110 27 104 143q-22 365 -36 448q62 -18 142 -51zM160 622v-70l-111 28v97z" />
<glyph unicode="k" horiz-adv-x="584" d="M77 19l-47 607q4 2 20 9t30 12.5t37 14t47 15.5l-32 -541l300 347l82 -98l-223 -184l216 -101l-70 -99l-191 163l-118 -97l-4 -67z" />
<glyph unicode="l" horiz-adv-x="239" d="M64 155l-34 474q2 1 26 11.5t50 20.5t56 19l-26 -485q-5 -93 63 -128v-67q-49 16 -78 44q-41 41 -57 111z" />
<glyph unicode="m" horiz-adv-x="848" d="M77 19l-47 387q80 33 142 51l-9 -67q55 53 124 60q43 5 92.5 -14.5t74.5 -54.5q58 61 133 69q58 7 117.5 -25.5t67.5 -87.5q5 -51 5 -125.5t-3 -141.5l-3 -68l-56 20q0 29 -1 73t-15 128.5t-39 106.5q-32 30 -84.5 26t-100.5 -45q3 -57 2 -125.5t-3 -125.5l-3 -58l-56 20 q0 29 -1 73t-15 128.5t-39 106.5q-36 35 -97 24.5t-112 -67.5q-23 -210 -27 -287z" />
<glyph unicode="n" horiz-adv-x="575" d="M77 19l-47 387q80 33 142 51l-11 -81q59 61 136 74q77 12 135.5 -21t66.5 -92q5 -39 5.5 -122.5t-1.5 -148.5l-2 -64l-56 20q0 29 -1 73t-15 128.5t-39 106.5q-26 23 -67 26.5t-87.5 -15.5t-80.5 -60l-6 -7q-21 -200 -25 -274z" />
<glyph unicode="o" horiz-adv-x="585" d="M32 236q7 62 41 110.5t81.5 72.5t105 30.5t110.5 -15.5q59 -23 98 -71t45 -117q10 -112 -57.5 -180t-178.5 -68q-117 0 -187 64.5t-58 173.5zM270 51q57 1 94 38.5t44 89.5q8 56 -14 103t-67.5 65.5t-113.5 -9.5q-102 -44 -81 -167q9 -54 45.5 -87t92.5 -33z" />
<glyph unicode="p" horiz-adv-x="556" d="M77 -181l-47 592q4 2 20 9t30 12.5t37 14t47 15.5l-2 -32q86 39 180 6q126 -47 143 -194q4 -72 -24.5 -131t-86.5 -87q-53 -26 -119 -22.5t-117 37.5l-14 -239zM181 383l-23 -11l-17 -283q46 -35 97.5 -34.5t89.5 32.5q49 42 55 104.5t-20 112t-77 76t-105 3.5z" />
<glyph unicode="q" horiz-adv-x="556" d="M486 411l-47 -592l-47 -19l-15 238q-51 -34 -117 -37t-118 23q-58 28 -86.5 87t-24.5 131q17 147 143 194q94 33 180 -6l-2 32q24 -7 47 -15.5t37 -14t30 -12.5t20 -9zM357 372l-22 11q-54 23 -105 -3.5t-77 -76t-20 -112t55 -104.5q38 -32 89 -32.5t97 34.5z" />
<glyph unicode="r" horiz-adv-x="470" d="M77 19l-47 392q4 2 20 9t30 12.5t37 14t47 15.5l-6 -71q44 43 106 56q85 17 156 -30l-48 -119q-60 51 -122 53t-100 -46l-26 -305z" />
<glyph unicode="s" d="M136 232q-36 12 -53.5 36t-16.5 48q2 67 59 101t130 34q99 0 190 -65l-85 -67q-84 62 -120 67q-21 4 -47.5 -7t-28.5 -30q-3 -28 37 -48.5t91.5 -33t99 -42t56.5 -72.5q-3 -53 -37.5 -89t-80.5 -50t-100 -14q-108 0 -200 58l62 73q98 -49 162 -56q26 -5 71 19 q51 27 31 49q-5 6 -15 11q-76 35 -205 78z" />
<glyph unicode="t" horiz-adv-x="371" d="M11 414l-1 35l73 13l-10 127q2 1 26 11.5t50 20.5t56 19l-10 -158l88 16l18 -77l-109 -3l-13 -223q-3 -50 21 -89.5t72 -38.5v-67q-146 28 -165 155l-21 261z" />
<glyph unicode="u" horiz-adv-x="602" d="M390 453q62 -18 142 -51l-47 -387l-47 -19l-6 68q-53 -49 -127 -61q-73 -11 -127.5 22t-84.5 91q-28 54 -43.5 124t-17.5 112l-2 43l127 51q-1 -11 -3 -30t-2.5 -71t3.5 -96t18.5 -90t38.5 -68q32 -32 97.5 -26t117.5 50q-23 232 -37 338z" />
<glyph unicode="v" horiz-adv-x="552" d="M532 439l-264 -435l-248 437l122 10l119 -287q20 47 65 146.5t63 143.5z" />
<glyph unicode="w" horiz-adv-x="802" d="M782 439l-264 -435q-41 85 -119 217l-131 -217l-248 437l112 10l129 -287q12 29 43 87t37 70q-71 119 -71 120l102 10l139 -287q20 47 65 146.5t63 143.5z" />
<glyph unicode="x" horiz-adv-x="517" d="M488 84l-17 -82l-209 196l-208 -196l-34 76l169 188l-169 159l97 30l121 -135l119 132l140 -33l-182 -171z" />
<glyph unicode="y" horiz-adv-x="592" d="M522 404l-34 -437q-16 -70 -57 -111q-35 -32 -94.5 -49t-115.5 -16t-109 7l19 87q127 -30 192 -16q75 16 96 84q2 14 -1 99q-53 -40 -113 -49q-73 -11 -127.5 22t-84.5 91q-28 54 -43.5 124t-17.5 112l-2 43l127 51q-1 -11 -3 -30t-2.5 -71t3.5 -96t18.5 -90t38.5 -68 q30 -30 90.5 -27t112.5 41q-16 213 -35 350q62 -18 142 -51z" />
<glyph unicode="z" horiz-adv-x="511" d="M420 374l-5 -53l-296 -262l310 62l12 -119l-385 -3l-18 70l274 256l-282 12l12 119z" />
<glyph unicode="{" horiz-adv-x="340" d="M121 558q0 93 31.5 135.5t125.5 44.5l26 -99q-46 0 -72.5 -13.5t-29.5 -54.5q-1 -21 -1 -67t-2 -81.5t-9 -68.5q-16 -77 -44 -101q33 -28 44 -81t11 -177q0 -79 19.5 -102.5t83.5 -24.5l-26 -48q-88 0 -122.5 41t-34.5 138q0 35 -0.5 53.5t-3 51.5t-7.5 52t-13 40.5 t-21.5 32t-31.5 11.5v68q18 1 31.5 12t21.5 34t13 43t7.5 54.5t3 53t0.5 53.5z" />
<glyph unicode="|" horiz-adv-x="257" d="M180 758l-50 -1007l-43 29l-10 928z" />
<glyph unicode="}" horiz-adv-x="348" d="M205 558q0 -35 0.5 -53.5t3 -53t7.5 -54.5t13 -43t21.5 -34t31.5 -12v-68q-18 -1 -31.5 -11.5t-21.5 -32t-13 -40.5t-7.5 -52t-3 -51.5t-0.5 -53.5q0 -97 -34.5 -138t-122.5 -41l-26 48q64 1 83.5 24.5t19.5 102.5q0 124 11 177t44 81q-28 24 -44 101q-7 33 -9 68.5 t-2 81.5t-1 67q-3 41 -29.5 54.5t-72.5 13.5l26 99q94 -2 125.5 -44.5t31.5 -135.5z" />
<glyph unicode="~" horiz-adv-x="512" d="M114 287l-48 66q10 29 40.5 48.5t64.5 19.5q21 0 49 -18.5t51 -37t46.5 -29.5t43.5 5.5t33 66.5l52 -39q-16 -54 -64 -94t-94 -27q-14 4 -39.5 25t-45 37t-44.5 13.5t-45 -36.5z" />
<glyph unicode="&#xa1;" horiz-adv-x="299" d="M170 225l41 -392q-5 -2 -24 -11.5t-44 -20t-55 -19.5l25 482zM91 355v70l111 -28v-97z" />
<glyph unicode="&#xa2;" d="M367 558l-31 -121q55 -21 93 -66l-27 -50q0 1 -5 7.5t-6.5 8.5t-6 8.5t-7.5 9.5l-8.5 8.5t-10 8.5t-10.5 6.5t-12 5.5l-13 3l-84 -331q53 -5 105.5 14.5t77.5 70.5l26 -25q-32 -64 -93.5 -92.5t-129.5 -22.5l-23 -90l-37 29l13 69q-21 7 -34 14q-60 29 -90 88.5 t-22 130.5q12 93 79 150t152 57l12 59zM180 76q4 -4 10 -7l61 315q-41 -14 -73.5 -51t-46.5 -81.5t-2.5 -93.5t51.5 -82z" />
<glyph unicode="&#xa3;" horiz-adv-x="601" d="M397 318l-187 -11q3 -53 -15.5 -105.5t-57.5 -122.5q63 -35 168.5 -3t159.5 99l59 -46q-147 -201 -488 -88l17 87q52 35 69 77t6 98l-95 -5v73l75 -2l-13 39q-13 43 -13 88.5t24 90t67 69.5q85 44 174.5 9t141.5 -122l-73 -59q-31 43 -77 62t-84.5 11.5t-58.5 -47.5 t-4 -105l8 -39l197 -5v-43z" />
<glyph unicode="&#xa4;" horiz-adv-x="614" d="M107 460l-72 69l60 61l71 -71q53 37 121 37q69 0 122 -37l71 71l59 -61l-71 -69q37 -56 37 -121t-37 -121l71 -69l-59 -62l-71 72q-53 -37 -122 -37q-68 0 -121 37l-71 -72l-60 62l72 69q-36 57 -36 121t36 121zM154 339q0 -55 39 -94t94 -39t93 39q39 39 39 94t-39 94 q-38 39 -93 39t-94 -39t-39 -94z" />
<glyph unicode="&#xa5;" horiz-adv-x="644" d="M474 182l-130 -9q-3 -54 -7 -169l-53 -4l-14 168l-100 -6v73l95 -3l-4 50l-91 -6v73l86 -3l-2 27l-234 266l112 36l169 -259l196 271l127 -61l-269 -279q0 -1 -1 -3v-1l120 -4v-43l-123 -8l-3 -59l126 -4v-43z" />
<glyph unicode="&#xa6;" horiz-adv-x="257" d="M180 698l-21 -380h-78l-4 330zM87 -180l-5 369h69l-21 -398z" />
<glyph unicode="&#xa7;" horiz-adv-x="622" d="M183 405q-40 15 -62 48.5t-22 71t21 74.5t60 58q42 24 102.5 34.5t141.5 -6.5t148 -68l-85 -78q-104 82 -164 91q-23 2 -50.5 1t-51 -16.5t-26.5 -40.5q-4 -37 21.5 -62.5t50 -34.5t79.5 -23q12 -3 18 -5q87 -24 156 -69.5t68 -93.5q-1 -65 -37.5 -110t-79.5 -65 q87 -52 87 -105q-1 -67 -39.5 -112.5t-82.5 -64.5q-51 -21 -119 -27t-146 10.5t-138 56.5l88 78q46 -25 65.5 -35t61 -20.5t90.5 -11.5q44 5 77 19t47 31t20 35.5t-4 31.5q-6 10 -22 20t-50.5 22.5t-53 19t-68.5 22.5q-58 17 -84 26t-60.5 27t-48.5 39q-33 46 -16.5 108.5 t75.5 95.5q22 13 50 21zM334 169q46 1 81.5 9t54.5 20t31.5 26.5t11.5 28t-5 24.5q-27 46 -215 73q-23 2 -50.5 1t-51 -16.5t-26.5 -40.5q-4 -37 21.5 -62.5t50 -34.5t79.5 -23q12 -3 18 -5z" />
<glyph unicode="&#xa8;" horiz-adv-x="409" d="M55 552v80l111 55v-107zM265 552v80l111 55v-107z" />
<glyph unicode="&#xa9;" horiz-adv-x="833" d="M90 388q0 -95 67.5 -162.5t162.5 -67.5t162.5 67.5t67.5 162.5t-67.5 162.5t-162.5 67.5t-162.5 -67.5t-67.5 -162.5zM33 388q0 118 84.5 202.5t202.5 84.5t202.5 -84.5t84.5 -202.5t-84.5 -202.5t-202.5 -84.5t-202.5 84.5t-84.5 202.5zM428 489l-28 -22 q-24 22 -64.5 24.5t-71.5 -44t-17 -120.5q9 -43 33.5 -68.5t58 -17t61.5 58.5l25 -8q-30 -78 -88 -80q-83 -4 -119.5 58.5t-21.5 148.5q11 58 55.5 98.5t101.5 31.5q47 -8 75 -60z" />
<glyph unicode="&#xaa;" horiz-adv-x="397" d="M92 600l5 81q46 0 100 -17t104 -62.5t57 -109.5q8 -54 6 -96.5t-5.5 -64.5t-5.5 -25l-36 3q2 16 3 42q-38 -31 -99.5 -41t-105.5 3q-43 12 -64.5 48t-15.5 77q12 83 102 109q39 11 81 7t71 -21q-52 67 -197 67zM318 402q0 24 -9 76q-17 17 -44 23q-74 22 -127 -20 q-40 -32 -32 -72q6 -24 31 -40q27 -19 88.5 -9.5t92.5 42.5z" />
<glyph unicode="&#xab;" horiz-adv-x="625" d="M362 444l-294 -151l294 -164l-53 -78l-276 219v33l276 219zM592 444l-294 -151l294 -164l-53 -78l-276 219v33l276 219z" />
<glyph unicode="&#xac;" horiz-adv-x="604" d="M571 214l-114 -14l6 137l-401 10l-29 59l518 44z" />
<glyph unicode="&#xad;" horiz-adv-x="507" d="M441 268l-364 -20v73l364 -10v-43z" />
<glyph unicode="&#xae;" horiz-adv-x="640" d="M33 388q0 118 84.5 202.5t202.5 84.5t202.5 -84.5t84.5 -202.5t-84.5 -202.5t-202.5 -84.5t-202.5 84.5t-84.5 202.5zM90 388q0 -95 67.5 -162.5t162.5 -67.5t162.5 67.5t67.5 162.5t-67.5 162.5t-162.5 67.5t-162.5 -67.5t-67.5 -162.5zM439 509q42 -54 -36 -113 q-22 -18 -81 -39l131 -96l-42 -49l-123 134l-25 -9q-2 -106 -2 -118q-19 -6 -24 -6l-24 317l-1 9l8 4q6 4 43 9t91 -4t85 -39zM278 524q-11 -1 -15 -153q54 12 91 37.5t38 56.5q-3 27 -41 44t-73 15z" />
<glyph unicode="&#xb0;" horiz-adv-x="306" d="M24 562q7 67 65 98t117 9q71 -28 77 -101q7 -61 -29.5 -97.5t-96.5 -36.5q-64 0 -102 34.5t-31 93.5zM152 462q31 0 51 20.5t24 48.5q7 48 -24 78.5t-82 7.5q-54 -24 -43 -90q5 -29 24.5 -47t49.5 -18z" />
<glyph unicode="&#xb1;" horiz-adv-x="462" d="M429 18l-364 -20v73l364 -10v-43zM212 347l-8 148h73l-4 -150l134 -4v-43l-136 -8l-4 -169h-43l-9 165l-138 -8v73z" />
<glyph unicode="&#xb2;" horiz-adv-x="289" d="M61 576l-15 36q23 35 70 57q39 17 86 -0.5t53 -62.5q8 -67 -85 -133q-49 -35 -79.5 -65t-32.5 -42l158 35l-2 -63q-36 4 -113 4q-10 0 -27 0.5t-27 0.5t-12 1l-2 24q5 22 37.5 63.5t74.5 77.5q60 52 45 91q-12 28 -51 25q-44 -4 -78 -49z" />
<glyph unicode="&#xb3;" horiz-adv-x="249" d="M154 516q60 -27 61 -79q1 -28 -30.5 -60.5t-68.5 -36.5q-56 -5 -83 33l26 27q17 -23 42 -25t44 13.5t21 36.5q1 13 -1 23t-6 16.5t-9.5 11.5t-11.5 7.5t-11 4t-8 2.5h-3l-1 38q43 17 50 57q5 33 -18 43q-29 13 -75 -36l-33 20q32 43 59 58q22 8 47.5 8.5t47.5 -15 t22 -42.5q1 -25 -15.5 -55.5t-45.5 -49.5z" />
<glyph unicode="&#xb4;" horiz-adv-x="253" d="M85 452l-30 27l68 199l97 -70z" />
<glyph unicode="&#xb5;" horiz-adv-x="569" d="M180 453q-9 -45 -21 -231q14 -93 57 -131q32 -32 97.5 -26t117.5 50q-23 232 -37 338q62 -18 142 -51l-47 -387l-47 -19l-6 68q-53 -49 -127 -61q-96 -14 -161 46l-3 -45q-8 -142 -11 -207l-53 -4l-48 591q74 52 147 69z" />
<glyph unicode="&#xb6;" horiz-adv-x="648" d="M615 678l-50 -887l-49 29l-10 791l-206 -14l-45 -806l-49 29l-5 415q-78 1 -126 55t-41 139q4 122 162 199l109 50l272 -18z" />
<glyph unicode="&#xb7;" horiz-adv-x="210" d="M135 300h-100v100h100v-100z" />
<glyph unicode="&#xb8;" horiz-adv-x="312" d="M124 -12l70 121h77l-70 -77q53 -32 70.5 -88.5t-7.5 -121.5q-28 -74 -91.5 -102t-139.5 5l40 85q30 -13 38 -15q78 -16 104 50q14 35 -1.5 71.5t-46.5 55.5q-26 11 -43 16z" />
<glyph unicode="&#xb9;" horiz-adv-x="221" d="M33 609q72 42 155 64l-35 -339l-23 9l-7 292l-51 -82z" />
<glyph unicode="&#xba;" horiz-adv-x="359" d="M34 556q9 74 73.5 109t130.5 11q80 -31 87 -115q7 -67 -34.5 -108t-108.5 -41q-71 0 -113 39t-35 105zM178 443q34 0 56.5 23.5t26.5 55.5q8 53 -26 87t-91 8q-63 -26 -50 -101q6 -33 28 -53t56 -20z" />
<glyph unicode="&#xbb;" horiz-adv-x="625" d="M557 293l-294 151l53 78l276 -219v-33l-276 -219l-53 78zM327 293l-294 151l53 78l276 -219v-33l-276 -219l-53 78z" />
<glyph unicode="&#xbc;" horiz-adv-x="794" d="M88 609q72 42 155 64l-35 -339l-23 9l-7 292l-51 -82zM127 55l434 622l48 -70l-456 -603zM549 289l-51 -95l125 -29l-12 148q36 16 69 26l-11 -184l37 -8v-21l-39 3l-8 -130l-24 9l-10 125l-168 16l46 188z" />
<glyph unicode="&#xbd;" horiz-adv-x="760" d="M477 236l-15 36q23 35 70 57q39 17 86 -0.5t53 -62.5q8 -67 -85 -133q-49 -35 -79.5 -65t-32.5 -42l158 35l-2 -63q-36 4 -113 4q-10 0 -27 0.5t-27 0.5t-12 1l-2 24q5 22 37.5 63.5t74.5 77.5q60 52 45 91q-12 28 -51 25q-44 -4 -78 -49zM88 609q72 42 155 64l-35 -339 l-23 9l-7 292l-51 -82zM127 55l434 622l48 -70l-456 -603z" />
<glyph unicode="&#xbe;" horiz-adv-x="797" d="M209 516q60 -27 61 -79q1 -28 -30.5 -60.5t-68.5 -36.5q-56 -5 -83 33l26 27q17 -23 42 -25t44 13.5t21 36.5q1 13 -1 23t-6 16.5t-9.5 11.5t-11.5 7.5t-11 4t-8 2.5h-3l-1 38q43 17 50 57q5 33 -18 43q-29 13 -75 -36l-33 20q32 43 59 58q22 8 47.5 8.5t47.5 -15 t22 -42.5q1 -25 -15.5 -55.5t-45.5 -49.5zM130 55l434 622l48 -70l-456 -603zM552 289l-51 -95l125 -29l-12 148l9 4q21 11 60 22l-11 -184l37 -8v-21l-39 3l-8 -130l-24 9l-10 125l-168 16l46 188z" />
<glyph unicode="&#xbf;" horiz-adv-x="501" d="M369 241l5 -132q-6 -2 -59.5 -9t-94.5 -28.5t-55 -66.5q0 -51 25.5 -79.5t62 -32t74.5 7.5t65 35l34 -119q-62 -39 -158 -30q-85 8 -130.5 64t-33.5 150q10 48 39 80.5t58.5 44t52.5 20t23 15.5l17 119zM263 352v70l111 -28v-97z" />
<glyph unicode="&#xc0;" horiz-adv-x="635" d="M20 26l322 652l273 -653l-139 -21q-26 75 -57 162l-246 29l-107 -195zM302 430l-107 -195l182 44q-65 170 -75 151zM400 778l-30 -27l-135 156l97 70z" />
<glyph unicode="&#xc1;" horiz-adv-x="635" d="M20 26l322 652l273 -653l-139 -21q-26 75 -57 162l-246 29l-107 -195zM302 430l-107 -195l182 44q-65 170 -75 151zM265 751l-30 27l68 199l97 -70z" />
<glyph unicode="&#xc2;" horiz-adv-x="635" d="M20 26l322 652l273 -653l-139 -21q-26 75 -57 162l-246 29l-107 -195zM302 430l-107 -195l182 44q-65 170 -75 151zM336 946l165 -123l-61 -75l-106 149l-103 -149l-61 75z" />
<glyph unicode="&#xc3;" horiz-adv-x="635" d="M20 26l322 652l273 -653l-139 -21q-26 75 -57 162l-246 29l-107 -195zM302 430l-107 -195l182 44q-65 170 -75 151zM218 791l-43 44q9 26 36 43.5t58 17.5q19 0 44 -16.5t46 -33t42.5 -26.5t39 5t29.5 60l47 -20q-14 -49 -57.5 -84.5t-84.5 -24.5q-13 3 -36 22 t-40.5 33.5t-40 12t-40.5 -32.5z" />
<glyph unicode="&#xc4;" horiz-adv-x="635" d="M20 26l322 652l273 -653l-139 -21q-26 75 -57 162l-246 29l-107 -195zM302 430l-107 -195l182 44q-65 170 -75 151zM183 819q0 29 19.5 50.5t47.5 21.5t48 -21.5t20 -50.5q0 -30 -20 -50.5t-48 -20.5t-47.5 20.5t-19.5 50.5zM383 819q0 29 19.5 50.5t47.5 21.5t48 -21.5 t20 -50.5q0 -30 -20 -50.5t-48 -20.5t-47.5 20.5t-19.5 50.5z" />
<glyph unicode="&#xc5;" horiz-adv-x="635" d="M223 765q0 51 34.5 87.5t82.5 36.5t83 -36.5t35 -87.5q0 -47 -29.5 -81t-72.5 -41l259 -618l-139 -21q-26 75 -57 162l-246 29l-107 -195l-46 26l305 617q-43 5 -72.5 39.5t-29.5 82.5zM302 430l-107 -195l182 44q-65 170 -75 151zM288 765q0 -23 15 -39t37 -16t37.5 16 t15.5 39t-15.5 39.5t-37.5 16.5t-37 -16.5t-15 -39.5z" />
<glyph unicode="&#xc6;" horiz-adv-x="1030" d="M624 317q-8 -109 -14 -277l305 153q-3 -121 -5 -135q-1 -5 -76.5 -18.5t-150.5 -24.5l-75 -11h-132q-26 75 -57 162l-246 29l-107 -195l-46 26l322 652l195 -467l-31 373l-1 15l12 9l1 1q90 61 200 69q139 10 257 -78l-80 -87q-128 98 -226 91q-24 -1 -43 -252l201 59 l-6 -112zM302 430l-107 -195l182 44q-65 170 -75 151z" />
<glyph unicode="&#xc7;" horiz-adv-x="553" d="M107 26q3 1 11 1q41 2 61 0q-91 46 -126.5 153t-13.5 234q22 117 111 197t204 63q31 -5 55.5 -17t42 -30.5t28.5 -34.5t23 -38l-56 -44q-38 52 -115 50q-85 -2 -143 -69q-79 -94 -47 -260q12 -64 45 -109.5t75 -62t92.5 12t92.5 105.5l51 -17q-35 -86 -82.5 -122 t-94.5 -38h-28q80 -36 103 -92q26 -76 -37 -120t-212 -40q-29 2 -40 4v53q58 -14 120 -3t79 52q20 59 -48 93t-151 27v52z" />
<glyph unicode="&#xc8;" horiz-adv-x="550" d="M149 317q-8 -109 -14 -277l305 153q-3 -121 -5 -135q-1 -5 -76.5 -18.5t-150.5 -24.5l-75 -11l-53 -4l-49 584l-1 15l12 9l1 1q90 61 200 69q139 10 257 -78l-80 -87q-128 98 -226 91q-24 -1 -43 -252l201 59l-6 -112zM357 778l-30 -27l-135 156l97 70z" />
<glyph unicode="&#xc9;" horiz-adv-x="550" d="M149 317q-8 -109 -14 -277l305 153q-3 -121 -5 -135q-1 -5 -76.5 -18.5t-150.5 -24.5l-75 -11l-53 -4l-49 584l-1 15l12 9l1 1q90 61 200 69q139 10 257 -78l-80 -87q-128 98 -226 91q-24 -1 -43 -252l201 59l-6 -112zM222 751l-30 27l68 199l97 -70z" />
<glyph unicode="&#xca;" horiz-adv-x="550" d="M149 317q-8 -109 -14 -277l305 153q-3 -121 -5 -135q-1 -5 -76.5 -18.5t-150.5 -24.5l-75 -11l-53 -4l-49 584l-1 15l12 9l1 1q90 61 200 69q139 10 257 -78l-80 -87q-128 98 -226 91q-24 -1 -43 -252l201 59l-6 -112zM266 946l165 -123l-61 -75l-106 149l-103 -149 l-61 75z" />
<glyph unicode="&#xcb;" horiz-adv-x="550" d="M149 317q-8 -109 -14 -277l305 153q-3 -121 -5 -135q-1 -5 -76.5 -18.5t-150.5 -24.5l-75 -11l-53 -4l-49 584l-1 15l12 9l1 1q90 61 200 69q139 10 257 -78l-80 -87q-128 98 -226 91q-24 -1 -43 -252l201 59l-6 -112zM93 819q0 29 19.5 50.5t47.5 21.5t48 -21.5 t20 -50.5q0 -30 -20 -50.5t-48 -20.5t-47.5 20.5t-19.5 50.5zM293 819q0 29 19.5 50.5t47.5 21.5t48 -21.5t20 -50.5q0 -30 -20 -50.5t-48 -20.5t-47.5 20.5t-19.5 50.5z" />
<glyph unicode="&#xcc;" horiz-adv-x="328" d="M277 657l1 -22l-33 -13l-41 -538l46 13l28 -97l-247 22l-1 22l109 21l-33 521l-48 -14l-28 107zM246 778l-30 -27l-135 156l97 70z" />
<glyph unicode="&#xcd;" horiz-adv-x="328" d="M277 657l1 -22l-33 -13l-41 -538l46 13l28 -97l-247 22l-1 22l109 21l-33 521l-48 -14l-28 107zM111 751l-30 27l68 199l97 -70z" />
<glyph unicode="&#xce;" horiz-adv-x="328" d="M277 657l1 -22l-33 -13l-41 -538l46 13l28 -97l-247 22l-1 22l109 21l-33 521l-48 -14l-28 107zM166 946l165 -123l-61 -75l-106 149l-103 -149l-61 75z" />
<glyph unicode="&#xcf;" horiz-adv-x="328" d="M277 657l1 -22l-33 -13l-41 -538l46 13l28 -97l-247 22l-1 22l109 21l-33 521l-48 -14l-28 107zM3 819q0 29 19.5 50.5t47.5 21.5t48 -21.5t20 -50.5q0 -30 -20 -50.5t-48 -20.5t-47.5 20.5t-19.5 50.5zM203 819q0 29 19.5 50.5t47.5 21.5t48 -21.5t20 -50.5 q0 -30 -20 -50.5t-48 -20.5t-47.5 20.5t-19.5 50.5z" />
<glyph unicode="&#xd0;" horiz-adv-x="575" d="M443 662q44 -21 64 -71.5t18 -103t-17 -101.5q-15 -48 -44.5 -95t-60.5 -82t-74 -71t-72 -56.5t-67.5 -43t-47 -26.5t-23.5 -12l-38 22l-27 311l-77 -5v73l71 -3l-16 183l-2 19l18 8q10 5 33.5 14t73.5 24t97.5 24.5t101 9t89.5 -17.5zM291 348l-145 -9l-15 -282 q260 152 270 374q4 102 -64 151t-162 5q-12 -11 -25 -192l141 -4v-43z" />
<glyph unicode="&#xd1;" horiz-adv-x="691" d="M520 188q-3 47 -5.5 151t-8 188t-17.5 154q20 -5 38.5 -11.5t32 -13t27 -14.5t20.5 -12.5t15 -10.5t9 -7l-48 -611l-53 4l-360 588q-7 -66 -12 -148t-7 -136.5t-5.5 -159t-4.5 -144.5l-53 -4l-48 611l9 6q9 7 15.5 11.5t20.5 12.5t27 14.5t32 13t39 11.5zM218 791l-43 44 q9 26 36 43.5t58 17.5q19 0 44 -16.5t46 -33t42.5 -26.5t39 5t29.5 60l47 -20q-14 -49 -57.5 -84.5t-84.5 -24.5q-13 3 -36 22t-40.5 33.5t-40 12t-40.5 -32.5z" />
<glyph unicode="&#xd2;" horiz-adv-x="722" d="M38 414q15 81 66.5 149t124.5 97q46 19 132 17.5t133 -24.5q65 -32 110 -96.5t60 -140.5q23 -133 -23 -244t-151 -151q-51 -19 -130.5 -21.5t-132.5 14.5q-112 36 -162.5 148.5t-26.5 251.5zM302 553q-103 -28 -138 -114.5t-12 -208.5q15 -77 61.5 -120.5t108.5 -51.5 q79 -10 144.5 36t84.5 137q33 164 -37.5 250.5t-211.5 71.5zM443 778l-30 -27l-135 156l97 70z" />
<glyph unicode="&#xd3;" horiz-adv-x="722" d="M38 414q15 81 66.5 149t124.5 97q46 19 132 17.5t133 -24.5q65 -32 110 -96.5t60 -140.5q23 -133 -23 -244t-151 -151q-51 -19 -130.5 -21.5t-132.5 14.5q-112 36 -162.5 148.5t-26.5 251.5zM302 553q-103 -28 -138 -114.5t-12 -208.5q15 -77 61.5 -120.5t108.5 -51.5 q79 -10 144.5 36t84.5 137q33 164 -37.5 250.5t-211.5 71.5zM308 751l-30 27l68 199l97 -70z" />
<glyph unicode="&#xd4;" horiz-adv-x="722" d="M38 414q15 81 66.5 149t124.5 97q46 19 132 17.5t133 -24.5q65 -32 110 -96.5t60 -140.5q23 -133 -23 -244t-151 -151q-51 -19 -130.5 -21.5t-132.5 14.5q-112 36 -162.5 148.5t-26.5 251.5zM302 553q-103 -28 -138 -114.5t-12 -208.5q15 -77 61.5 -120.5t108.5 -51.5 q79 -10 144.5 36t84.5 137q33 164 -37.5 250.5t-211.5 71.5zM336 946l165 -123l-61 -75l-106 149l-103 -149l-61 75z" />
<glyph unicode="&#xd5;" horiz-adv-x="722" d="M38 414q15 81 66.5 149t124.5 97q46 19 132 17.5t133 -24.5q65 -32 110 -96.5t60 -140.5q23 -133 -23 -244t-151 -151q-51 -19 -130.5 -21.5t-132.5 14.5q-112 36 -162.5 148.5t-26.5 251.5zM302 553q-103 -28 -138 -114.5t-12 -208.5q15 -77 61.5 -120.5t108.5 -51.5 q79 -10 144.5 36t84.5 137q33 164 -37.5 250.5t-211.5 71.5zM218 791l-43 44q9 26 36 43.5t58 17.5q19 0 44 -16.5t46 -33t42.5 -26.5t39 5t29.5 60l47 -20q-14 -49 -57.5 -84.5t-84.5 -24.5q-13 3 -36 22t-40.5 33.5t-40 12t-40.5 -32.5z" />
<glyph unicode="&#xd6;" horiz-adv-x="722" d="M38 414q15 81 66.5 149t124.5 97q46 19 132 17.5t133 -24.5q65 -32 110 -96.5t60 -140.5q23 -133 -23 -244t-151 -151q-51 -19 -130.5 -21.5t-132.5 14.5q-112 36 -162.5 148.5t-26.5 251.5zM302 553q-103 -28 -138 -114.5t-12 -208.5q15 -77 61.5 -120.5t108.5 -51.5 q79 -10 144.5 36t84.5 137q33 164 -37.5 250.5t-211.5 71.5zM203 819q0 29 19.5 50.5t47.5 21.5t48 -21.5t20 -50.5q0 -30 -20 -50.5t-48 -20.5t-47.5 20.5t-19.5 50.5zM403 819q0 29 19.5 50.5t47.5 21.5t48 -21.5t20 -50.5q0 -30 -20 -50.5t-48 -20.5t-47.5 20.5 t-19.5 50.5z" />
<glyph unicode="&#xd7;" horiz-adv-x="463" d="M235 322l99 111l52 -52l-109 -103l106 -112l-30 -30l-116 104l-123 -116l-30 30l110 123l-117 106l52 52z" />
<glyph unicode="&#xd8;" horiz-adv-x="722" d="M79 30l38 53q-55 59 -75.5 146.5t-3.5 184.5q15 81 66.5 149t124.5 97q46 19 132 17.5t133 -24.5l19 -11l40 57l78 -70l-41 -54q57 -71 74 -159q23 -133 -23 -244t-151 -151q-51 -19 -130.5 -21.5t-132.5 14.5q-20 6 -49 21l-43 -56zM551 231q32 159 -35 247l-290 -380 q41 -34 96 -40q79 -10 144.5 36t84.5 137zM302 553q-103 -28 -138 -114.5t-12 -208.5q8 -39 22 -66l264 373q-56 24 -136 16z" />
<glyph unicode="&#xd9;" horiz-adv-x="746" d="M569 313l-26 368q20 -5 39 -11.5t32 -13t27 -14.5t20.5 -12.5t15.5 -11.5l9 -6l-24 -307q-17 -96 -27 -124q-42 -119 -147 -160q-51 -19 -115 -21.5t-118 14.5q-108 34 -156 149q-23 58 -35 145l-24 304l9 6q9 7 15.5 11.5t20.5 12.5t27 14.5t32 13t39 11.5 q-18 -82 -20 -219.5t16 -230.5q12 -61 40 -102t63.5 -56t75.5 -15t78 21.5t68.5 53t48 79t16.5 101.5zM455 778l-30 -27l-135 156l97 70z" />
<glyph unicode="&#xda;" horiz-adv-x="746" d="M569 313l-26 368q20 -5 39 -11.5t32 -13t27 -14.5t20.5 -12.5t15.5 -11.5l9 -6l-24 -307q-17 -96 -27 -124q-42 -119 -147 -160q-51 -19 -115 -21.5t-118 14.5q-108 34 -156 149q-23 58 -35 145l-24 304l9 6q9 7 15.5 11.5t20.5 12.5t27 14.5t32 13t39 11.5 q-18 -82 -20 -219.5t16 -230.5q12 -61 40 -102t63.5 -56t75.5 -15t78 21.5t68.5 53t48 79t16.5 101.5zM320 751l-30 27l68 199l97 -70z" />
<glyph unicode="&#xdb;" horiz-adv-x="746" d="M569 313l-26 368q20 -5 39 -11.5t32 -13t27 -14.5t20.5 -12.5t15.5 -11.5l9 -6l-24 -307q-17 -96 -27 -124q-42 -119 -147 -160q-51 -19 -115 -21.5t-118 14.5q-108 34 -156 149q-23 58 -35 145l-24 304l9 6q9 7 15.5 11.5t20.5 12.5t27 14.5t32 13t39 11.5 q-18 -82 -20 -219.5t16 -230.5q12 -61 40 -102t63.5 -56t75.5 -15t78 21.5t68.5 53t48 79t16.5 101.5zM376 946l165 -123l-61 -75l-106 149l-103 -149l-61 75z" />
<glyph unicode="&#xdc;" horiz-adv-x="746" d="M569 313l-26 368q20 -5 39 -11.5t32 -13t27 -14.5t20.5 -12.5t15.5 -11.5l9 -6l-24 -307q-17 -96 -27 -124q-42 -119 -147 -160q-51 -19 -115 -21.5t-118 14.5q-108 34 -156 149q-23 58 -35 145l-24 304l9 6q9 7 15.5 11.5t20.5 12.5t27 14.5t32 13t39 11.5 q-18 -82 -20 -219.5t16 -230.5q12 -61 40 -102t63.5 -56t75.5 -15t78 21.5t68.5 53t48 79t16.5 101.5zM203 819q0 29 19.5 50.5t47.5 21.5t48 -21.5t20 -50.5q0 -30 -20 -50.5t-48 -20.5t-47.5 20.5t-19.5 50.5zM403 819q0 29 19.5 50.5t47.5 21.5t48 -21.5t20 -50.5 q0 -30 -20 -50.5t-48 -20.5t-47.5 20.5t-19.5 50.5z" />
<glyph unicode="&#xdd;" horiz-adv-x="644" d="M624 626l-269 -279q-13 -203 -18 -343l-53 -4l-30 372v1l-234 266l112 36l169 -259l196 271zM355 778l-30 -27l-135 156l97 70z" />
<glyph unicode="&#xde;" horiz-adv-x="565" d="M176 681q-3 -18 -7 -77t-5 -71q217 17 319 -85q40 -55 20 -112.5t-92 -113.5q-34 -26 -87.5 -49t-116.5 -43.5t-69 -22.5q-2 -27 -4 -55.5t-3 -47.5h-4l-49 -3l-48 611q75 52 146 69zM160 478l-1 -1q-9 -119 -18 -302q105 25 175.5 74.5t71.5 110.5q-4 37 -44 66 t-90.5 42t-93.5 10z" />
<glyph unicode="&#xdf;" horiz-adv-x="577" d="M306 253q-76 45 -70 84q4 25 23 46.5t39.5 35t38 37.5t19.5 55q-10 85 -108 101q-55 10 -76.5 -14t-26.5 -70q-5 -45 -9.5 -172.5t-8 -231.5t-7.5 -110q-39 -13 -48 -13l-41 551q-1 54 38.5 89.5t91.5 36.5q63 1 97.5 -2t83 -22t87.5 -58q23 -27 20.5 -60.5t-18.5 -63 t-43 -58.5q-6 -6 -17.5 -16.5t-15.5 -16t-7.5 -14.5t1 -19.5t15.5 -24.5q15 -18 51 -45.5t61.5 -56.5t34.5 -65q-3 -53 -37.5 -89t-80.5 -50t-100 -14q-53 0 -95 17v106q6 -3 21 -12t23 -13t21 -9.5t26 -9t28 -4.5q33 -6 71.5 18.5t15.5 60.5t-44 56.5t-54 39.5z" />
<glyph unicode="&#xe0;" horiz-adv-x="515" d="M104 368l7 103q41 0 90.5 -13.5t101 -40t89.5 -74.5t46 -109q17 -136 -7 -234l-47 3q3 20 5 52q-48 -38 -124.5 -50.5t-131.5 4.5q-54 15 -81.5 60.5t-19.5 96.5q17 104 128 136q50 14 102 8.5t89 -27.5q-64 85 -247 85zM386 121q0 44 -11 95q-18 16 -54 27 q-89 26 -155 -21q-50 -36 -46 -84q3 -36 40 -59q35 -25 111 -12.5t115 54.5zM340 549l-30 -27l-135 156l97 70z" />
<glyph unicode="&#xe1;" horiz-adv-x="515" d="M205 522l-30 27l68 199l97 -70zM104 368l7 103q41 0 90.5 -13.5t101 -40t89.5 -74.5t46 -109q17 -136 -7 -234l-47 3q3 20 5 52q-48 -38 -124.5 -50.5t-131.5 4.5q-54 15 -81.5 60.5t-19.5 96.5q17 104 128 136q50 14 102 8.5t89 -27.5q-64 85 -247 85zM386 121 q0 44 -11 95q-18 16 -54 27q-89 26 -155 -21q-50 -36 -46 -84q3 -36 40 -59q35 -25 111 -12.5t115 54.5z" />
<glyph unicode="&#xe2;" horiz-adv-x="515" d="M104 368l7 103q41 0 90.5 -13.5t101 -40t89.5 -74.5t46 -109q17 -136 -7 -234l-47 3q3 20 5 52q-48 -38 -124.5 -50.5t-131.5 4.5q-54 15 -81.5 60.5t-19.5 96.5q17 104 128 136q50 14 102 8.5t89 -27.5q-64 85 -247 85zM386 121q0 44 -11 95q-18 16 -54 27 q-89 26 -155 -21q-50 -36 -46 -84q3 -36 40 -59q35 -25 111 -12.5t115 54.5zM316 726l165 -123l-61 -75l-106 149l-103 -149l-61 75z" />
<glyph unicode="&#xe3;" horiz-adv-x="515" d="M104 368l7 103q41 0 90.5 -13.5t101 -40t89.5 -74.5t46 -109q17 -136 -7 -234l-47 3q3 20 5 52q-48 -38 -124.5 -50.5t-131.5 4.5q-54 15 -81.5 60.5t-19.5 96.5q17 104 128 136q50 14 102 8.5t89 -27.5q-64 85 -247 85zM386 121q0 44 -11 95q-18 16 -54 27 q-89 26 -155 -21q-50 -36 -46 -84q3 -36 40 -59q35 -25 111 -12.5t115 54.5zM158 561l-43 44q9 26 36 43.5t58 17.5q19 0 44 -16.5t46 -33t42.5 -26.5t39 5t29.5 60l47 -20q-14 -49 -57.5 -84.5t-84.5 -24.5q-13 3 -36 22t-40.5 33.5t-40 12t-40.5 -32.5z" />
<glyph unicode="&#xe4;" horiz-adv-x="515" d="M104 368l7 103q41 0 90.5 -13.5t101 -40t89.5 -74.5t46 -109q17 -136 -7 -234l-47 3q3 20 5 52q-48 -38 -124.5 -50.5t-131.5 4.5q-54 15 -81.5 60.5t-19.5 96.5q17 104 128 136q50 14 102 8.5t89 -27.5q-64 85 -247 85zM386 121q0 44 -11 95q-18 16 -54 27 q-89 26 -155 -21q-50 -36 -46 -84q3 -36 40 -59q35 -25 111 -12.5t115 54.5zM93 596q0 29 19.5 50.5t47.5 21.5t48 -21.5t20 -50.5q0 -30 -20 -50.5t-48 -20.5t-47.5 20.5t-19.5 50.5zM293 596q0 29 19.5 50.5t47.5 21.5t48 -21.5t20 -50.5q0 -30 -20 -50.5t-48 -20.5 t-47.5 20.5t-19.5 50.5z" />
<glyph unicode="&#xe5;" horiz-adv-x="515" d="M104 368l7 103q41 0 90.5 -13.5t101 -40t89.5 -74.5t46 -109q17 -136 -7 -234l-47 3q3 20 5 52q-48 -38 -124.5 -50.5t-131.5 4.5q-54 15 -81.5 60.5t-19.5 96.5q17 104 128 136q50 14 102 8.5t89 -27.5q-64 85 -247 85zM386 121q0 44 -11 95q-18 16 -54 27 q-89 26 -155 -21q-50 -36 -46 -84q3 -36 40 -59q35 -25 111 -12.5t115 54.5zM175 631q0 46 31 79t74 33t74.5 -33t31.5 -79q0 -47 -31.5 -79t-74.5 -32q-44 0 -74.5 32t-30.5 79zM233 631q0 -21 13.5 -35t33.5 -14t34 14t14 35t-14 35.5t-34 14.5t-33.5 -14.5t-13.5 -35.5z " />
<glyph unicode="&#xe6;" horiz-adv-x="871" d="M779 141l26 -25q-29 -57 -83.5 -87.5t-111 -28.5t-109.5 24q-35 16 -60 42q-2 -18 -4.5 -34t-4.5 -24l-1 -8l-47 3q3 20 5 52q-48 -38 -124.5 -50.5t-131.5 4.5q-54 15 -81.5 60.5t-19.5 96.5q17 104 128 136q50 14 102 8.5t89 -27.5q-64 85 -247 85l7 103q74 0 163 -39 t134 -113q43 86 125 116q68 26 142.5 9.5t106.5 -68.5q35 -56 -10.5 -110t-126 -84t-156.5 -32q13 -47 48 -73q32 -24 79.5 -25.5t93 22t69.5 67.5zM386 121q0 44 -11 95q-18 16 -54 27q-89 26 -155 -21q-50 -36 -46 -84q3 -36 40 -59q35 -25 111 -12.5t115 54.5zM484 197 q0 -11 78 19t143 72.5t39 64.5q-43 36 -91 38t-84.5 -23t-60.5 -71t-24 -100z" />
<glyph unicode="&#xe7;" d="M107 27q3 1 11 1h14q-55 31 -81.5 88.5t-18.5 125.5q9 73 55.5 125.5t106 71.5t125 3t110.5 -71l-27 -50q0 1 -5 7.5t-6.5 8.5t-6 8.5t-7.5 9.5l-8.5 8.5t-10 8.5t-10.5 6.5t-12 5.5q-39 15 -73.5 4t-65 -34.5t-48.5 -60t-24 -74.5t8 -76.5t47 -66.5q20 -17 66 -21t99 17 t77 69l26 -25q-47 -93 -154 -112q79 -30 102 -81q26 -66 -37 -105t-212 -36q-29 2 -40 4v46q58 -12 120.5 -2t78.5 46q14 35 -16 61.5t-80.5 37.5t-102.5 7v45z" />
<glyph unicode="&#xe8;" horiz-adv-x="521" d="M425 141l26 -25q-29 -57 -83.5 -87.5t-111 -28.5t-109.5 24q-60 29 -90.5 85t-25.5 128q5 64 46.5 120t101.5 78q68 26 142.5 9.5t106.5 -68.5q35 -56 -10.5 -110t-126 -84t-156.5 -32q13 -47 48 -73q32 -24 79.5 -25.5t93 22t69.5 67.5zM130 197q0 -11 78 19t143 72.5 t39 64.5q-43 36 -91 38t-84.5 -23t-60.5 -71t-24 -100zM343 549l-30 -27l-135 156l97 70z" />
<glyph unicode="&#xe9;" horiz-adv-x="521" d="M425 141l26 -25q-29 -57 -83.5 -87.5t-111 -28.5t-109.5 24q-60 29 -90.5 85t-25.5 128q5 64 46.5 120t101.5 78q68 26 142.5 9.5t106.5 -68.5q35 -56 -10.5 -110t-126 -84t-156.5 -32q13 -47 48 -73q32 -24 79.5 -25.5t93 22t69.5 67.5zM130 197q0 -11 78 19t143 72.5 t39 64.5q-43 36 -91 38t-84.5 -23t-60.5 -71t-24 -100zM208 522l-30 27l68 199l97 -70z" />
<glyph unicode="&#xea;" horiz-adv-x="521" d="M425 141l26 -25q-29 -57 -83.5 -87.5t-111 -28.5t-109.5 24q-60 29 -90.5 85t-25.5 128q5 64 46.5 120t101.5 78q68 26 142.5 9.5t106.5 -68.5q35 -56 -10.5 -110t-126 -84t-156.5 -32q13 -47 48 -73q32 -24 79.5 -25.5t93 22t69.5 67.5zM130 197q0 -11 78 19t143 72.5 t39 64.5q-43 36 -91 38t-84.5 -23t-60.5 -71t-24 -100zM256 726l165 -123l-61 -75l-106 149l-103 -149l-61 75z" />
<glyph unicode="&#xeb;" horiz-adv-x="521" d="M425 141l26 -25q-29 -57 -83.5 -87.5t-111 -28.5t-109.5 24q-60 29 -90.5 85t-25.5 128q5 64 46.5 120t101.5 78q68 26 142.5 9.5t106.5 -68.5q35 -56 -10.5 -110t-126 -84t-156.5 -32q13 -47 48 -73q32 -24 79.5 -25.5t93 22t69.5 67.5zM130 197q0 -11 78 19t143 72.5 t39 64.5q-43 36 -91 38t-84.5 -23t-60.5 -71t-24 -100zM93 596q0 29 19.5 50.5t47.5 21.5t48 -21.5t20 -50.5q0 -30 -20 -50.5t-48 -20.5t-47.5 20.5t-19.5 50.5zM293 596q0 29 19.5 50.5t47.5 21.5t48 -21.5t20 -50.5q0 -30 -20 -50.5t-48 -20.5t-47.5 20.5t-19.5 50.5z " />
<glyph unicode="&#xec;" horiz-adv-x="242" d="M77 19l-47 387q80 33 142 51q-12 -79 -28.5 -243t-19.5 -214zM204 549l-30 -27l-135 156l97 70z" />
<glyph unicode="&#xed;" horiz-adv-x="242" d="M77 19l-47 387q80 33 142 51q-12 -79 -28.5 -243t-19.5 -214zM69 522l-30 27l68 199l97 -70z" />
<glyph unicode="&#xee;" horiz-adv-x="242" d="M77 19l-47 387q80 33 142 51q-12 -79 -28.5 -243t-19.5 -214zM116 726l165 -123l-61 -75l-106 149l-103 -149l-61 75z" />
<glyph unicode="&#xef;" horiz-adv-x="242" d="M77 19l-47 387q80 33 142 51q-12 -79 -28.5 -243t-19.5 -214zM-47 596q0 29 19.5 50.5t47.5 21.5t48 -21.5t20 -50.5q0 -30 -20 -50.5t-48 -20.5t-47.5 20.5t-19.5 50.5zM153 596q0 29 19.5 50.5t47.5 21.5t48 -21.5t20 -50.5q0 -30 -20 -50.5t-48 -20.5t-47.5 20.5 t-19.5 50.5z" />
<glyph unicode="&#xf0;" horiz-adv-x="568" d="M176 513l-35 27l117 89l-70 117h147l16 -46l67 51l58 -41l-104 -68l118 -325q8 -33 8 -79q0 -97 -62.5 -165t-161.5 -68q-95 0 -159.5 66.5t-64.5 165.5q0 96 63 164t161 68q51 0 94 -20l-83 136zM411 249q0 65 -39.5 112t-103.5 47q-62 0 -97.5 -44t-35.5 -115 q0 -62 37.5 -104.5t95.5 -43.5q64 -1 103.5 40t39.5 108z" />
<glyph unicode="&#xf1;" horiz-adv-x="575" d="M77 19l-47 387q80 33 142 51l-11 -81q59 61 136 74q77 12 135.5 -21t66.5 -92q5 -39 5.5 -122.5t-1.5 -148.5l-2 -64l-56 20q0 29 -1 73t-15 128.5t-39 106.5q-26 23 -67 26.5t-87.5 -15.5t-80.5 -60l-6 -7q-21 -200 -25 -274zM158 561l-43 44q9 26 36 43.5t58 17.5 q19 0 44 -16.5t46 -33t42.5 -26.5t39 5t29.5 60l47 -20q-14 -49 -57.5 -84.5t-84.5 -24.5q-13 3 -36 22t-40.5 33.5t-40 12t-40.5 -32.5z" />
<glyph unicode="&#xf2;" horiz-adv-x="585" d="M32 236q7 62 41 110.5t81.5 72.5t105 30.5t110.5 -15.5q59 -23 98 -71t45 -117q10 -112 -57.5 -180t-178.5 -68q-117 0 -187 64.5t-58 173.5zM270 51q57 1 94 38.5t44 89.5q8 56 -14 103t-67.5 65.5t-113.5 -9.5q-102 -44 -81 -167q9 -54 45.5 -87t92.5 -33zM375 549 l-30 -27l-135 156l97 70z" />
<glyph unicode="&#xf3;" horiz-adv-x="585" d="M32 236q7 62 41 110.5t81.5 72.5t105 30.5t110.5 -15.5q59 -23 98 -71t45 -117q10 -112 -57.5 -180t-178.5 -68q-117 0 -187 64.5t-58 173.5zM270 51q57 1 94 38.5t44 89.5q8 56 -14 103t-67.5 65.5t-113.5 -9.5q-102 -44 -81 -167q9 -54 45.5 -87t92.5 -33zM240 522 l-30 27l68 199l97 -70z" />
<glyph unicode="&#xf4;" horiz-adv-x="585" d="M32 236q7 62 41 110.5t81.5 72.5t105 30.5t110.5 -15.5q59 -23 98 -71t45 -117q10 -112 -57.5 -180t-178.5 -68q-117 0 -187 64.5t-58 173.5zM270 51q57 1 94 38.5t44 89.5q8 56 -14 103t-67.5 65.5t-113.5 -9.5q-102 -44 -81 -167q9 -54 45.5 -87t92.5 -33zM286 726 l165 -123l-61 -75l-106 149l-103 -149l-61 75z" />
<glyph unicode="&#xf5;" horiz-adv-x="585" d="M32 236q7 62 41 110.5t81.5 72.5t105 30.5t110.5 -15.5q59 -23 98 -71t45 -117q10 -112 -57.5 -180t-178.5 -68q-117 0 -187 64.5t-58 173.5zM270 51q57 1 94 38.5t44 89.5q8 56 -14 103t-67.5 65.5t-113.5 -9.5q-102 -44 -81 -167q9 -54 45.5 -87t92.5 -33zM158 561 l-43 44q9 26 36 43.5t58 17.5q19 0 44 -16.5t46 -33t42.5 -26.5t39 5t29.5 60l47 -20q-14 -49 -57.5 -84.5t-84.5 -24.5q-13 3 -36 22t-40.5 33.5t-40 12t-40.5 -32.5z" />
<glyph unicode="&#xf6;" horiz-adv-x="585" d="M32 236q7 62 41 110.5t81.5 72.5t105 30.5t110.5 -15.5q59 -23 98 -71t45 -117q10 -112 -57.5 -180t-178.5 -68q-117 0 -187 64.5t-58 173.5zM270 51q57 1 94 38.5t44 89.5q8 56 -14 103t-67.5 65.5t-113.5 -9.5q-102 -44 -81 -167q9 -54 45.5 -87t92.5 -33zM133 596 q0 29 19.5 50.5t47.5 21.5t48 -21.5t20 -50.5q0 -30 -20 -50.5t-48 -20.5t-47.5 20.5t-19.5 50.5zM333 596q0 29 19.5 50.5t47.5 21.5t48 -21.5t20 -50.5q0 -30 -20 -50.5t-48 -20.5t-47.5 20.5t-19.5 50.5z" />
<glyph unicode="&#xf7;" d="M186 55v80l111 55v-107zM203 384v80l111 55v-107zM441 268l-364 -20v73l364 -10v-43z" />
<glyph unicode="&#xf8;" horiz-adv-x="585" d="M90 12l22 32q-95 65 -80 192q7 62 41 110.5t81.5 72.5t105 30.5t110.5 -15.5l16 -7l35 48l42 -40l-29 -38q70 -56 79 -151q10 -112 -57.5 -180t-178.5 -68q-73 0 -130 26l-28 -36zM270 51q57 1 94 38.5t44 89.5q11 84 -37 137l-184 -240q34 -25 83 -25zM132 171 q6 -35 25 -64l172 239q-50 21 -116 -8q-102 -44 -81 -167z" />
<glyph unicode="&#xf9;" horiz-adv-x="602" d="M390 453q62 -18 142 -51l-47 -387l-47 -19l-6 68q-53 -49 -127 -61q-73 -11 -127.5 22t-84.5 91q-28 54 -43.5 124t-17.5 112l-2 43l127 51q-1 -11 -3 -30t-2.5 -71t3.5 -96t18.5 -90t38.5 -68q32 -32 97.5 -26t117.5 50q-23 232 -37 338zM383 549l-30 -27l-135 156 l97 70z" />
<glyph unicode="&#xfa;" horiz-adv-x="602" d="M390 453q62 -18 142 -51l-47 -387l-47 -19l-6 68q-53 -49 -127 -61q-73 -11 -127.5 22t-84.5 91q-28 54 -43.5 124t-17.5 112l-2 43l127 51q-1 -11 -3 -30t-2.5 -71t3.5 -96t18.5 -90t38.5 -68q32 -32 97.5 -26t117.5 50q-23 232 -37 338zM248 522l-30 27l68 199l97 -70z " />
<glyph unicode="&#xfb;" horiz-adv-x="602" d="M390 453q62 -18 142 -51l-47 -387l-47 -19l-6 68q-53 -49 -127 -61q-73 -11 -127.5 22t-84.5 91q-28 54 -43.5 124t-17.5 112l-2 43l127 51q-1 -11 -3 -30t-2.5 -71t3.5 -96t18.5 -90t38.5 -68q32 -32 97.5 -26t117.5 50q-23 232 -37 338zM296 726l165 -123l-61 -75 l-106 149l-103 -149l-61 75z" />
<glyph unicode="&#xfc;" horiz-adv-x="602" d="M390 453q62 -18 142 -51l-47 -387l-47 -19l-6 68q-53 -49 -127 -61q-73 -11 -127.5 22t-84.5 91q-28 54 -43.5 124t-17.5 112l-2 43l127 51q-1 -11 -3 -30t-2.5 -71t3.5 -96t18.5 -90t38.5 -68q32 -32 97.5 -26t117.5 50q-23 232 -37 338zM333 596q0 29 19.5 50.5 t47.5 21.5t48 -21.5t20 -50.5q0 -30 -20 -50.5t-48 -20.5t-47.5 20.5t-19.5 50.5zM133 596q0 29 19.5 50.5t47.5 21.5t48 -21.5t20 -50.5q0 -30 -20 -50.5t-48 -20.5t-47.5 20.5t-19.5 50.5z" />
<glyph unicode="&#xfd;" horiz-adv-x="592" d="M522 404l-34 -437q-16 -70 -57 -111q-35 -32 -94.5 -49t-115.5 -16t-109 7l19 87q127 -30 192 -16q75 16 96 84q2 14 -1 99q-53 -40 -113 -49q-73 -11 -127.5 22t-84.5 91q-28 54 -43.5 124t-17.5 112l-2 43l127 51q-1 -11 -3 -30t-2.5 -71t3.5 -96t18.5 -90t38.5 -68 q30 -30 90.5 -27t112.5 41q-16 213 -35 350q62 -18 142 -51zM313 549l-30 -27l-135 156l97 70z" />
<glyph unicode="&#xfe;" horiz-adv-x="514" d="M158 748l-19 -352q41 39 93 49t102 -13q47 -23 77.5 -71t35.5 -116q8 -111 -45.5 -179t-140.5 -68t-140 56l-13 -253l-43 29l-10 868zM256 51q44 1 68.5 36t30.5 88q6 57 -9 108.5t-48.5 76.5t-86.5 -3q-43 -24 -57 -78.5t-7 -108.5q7 -53 36 -86t73 -33z" />
<glyph unicode="&#xff;" horiz-adv-x="592" d="M522 404l-34 -437q-16 -70 -57 -111q-35 -32 -94.5 -49t-115.5 -16t-109 7l19 87q127 -30 192 -16q75 16 96 84q2 14 -1 99q-53 -40 -113 -49q-73 -11 -127.5 22t-84.5 91q-28 54 -43.5 124t-17.5 112l-2 43l127 51q-1 -11 -3 -30t-2.5 -71t3.5 -96t18.5 -90t38.5 -68 q30 -30 90.5 -27t112.5 41q-16 213 -35 350q62 -18 142 -51zM133 596q0 29 19.5 50.5t47.5 21.5t48 -21.5t20 -50.5q0 -30 -20 -50.5t-48 -20.5t-47.5 20.5t-19.5 50.5zM333 596q0 29 19.5 50.5t47.5 21.5t48 -21.5t20 -50.5q0 -30 -20 -50.5t-48 -20.5t-47.5 20.5 t-19.5 50.5z" />
<glyph unicode="&#x100;" horiz-adv-x="635" d="M20 26l322 652l273 -653l-139 -21q-26 75 -57 162l-246 29l-107 -195zM302 430l-107 -195l182 44q-65 170 -75 151zM447 777l-254 -20v83l254 -10v-53z" />
<glyph unicode="&#x101;" horiz-adv-x="515" d="M104 368l7 103q41 0 90.5 -13.5t101 -40t89.5 -74.5t46 -109q17 -136 -7 -234l-47 3q3 20 5 52q-48 -38 -124.5 -50.5t-131.5 4.5q-54 15 -81.5 60.5t-19.5 96.5q17 104 128 136q50 14 102 8.5t89 -27.5q-64 85 -247 85zM386 121q0 44 -11 95q-18 16 -54 27 q-89 26 -155 -21q-50 -36 -46 -84q3 -36 40 -59q35 -25 111 -12.5t115 54.5zM347 547l-254 -20v83l254 -10v-53z" />
<glyph unicode="&#x102;" horiz-adv-x="635" d="M20 26l322 652l273 -653l-139 -21q-26 75 -57 162l-246 29l-107 -195zM302 430l-107 -195l182 44q-65 170 -75 151zM143 928v3l89 -7q-2 -23 0 -46q13 -74 86 -74q72 1 84 79q1 15 -1 41l94 7q5 -82 -44 -131.5t-129 -49.5q-85 0 -136 48.5t-43 129.5z" />
<glyph unicode="&#x103;" horiz-adv-x="515" d="M104 368l7 103q41 0 90.5 -13.5t101 -40t89.5 -74.5t46 -109q17 -136 -7 -234l-47 3q3 20 5 52q-48 -38 -124.5 -50.5t-131.5 4.5q-54 15 -81.5 60.5t-19.5 96.5q17 104 128 136q50 14 102 8.5t89 -27.5q-64 85 -247 85zM386 121q0 44 -11 95q-18 16 -54 27 q-89 26 -155 -21q-50 -36 -46 -84q3 -36 40 -59q35 -25 111 -12.5t115 54.5zM83 697v3l89 -7q-2 -23 0 -46q13 -74 86 -74q72 1 84 79q1 15 -1 41l94 7q5 -82 -44 -131.5t-129 -49.5q-85 0 -136 48.5t-43 129.5z" />
<glyph unicode="&#x104;" horiz-adv-x="635" d="M20 26l322 652l273 -653l-109 -17l8 -20q-17 -5 -43 -16q-30 -18 -41 -54.5t3 -72.5q26 -66 104 -50q8 2 38 15l40 -85q-76 -33 -139.5 -5t-91.5 102q-29 71 -8.5 133t86.5 89l-43 122l-246 29l-107 -195zM302 430l-107 -195l182 44q-65 170 -75 151z" />
<glyph unicode="&#x105;" horiz-adv-x="515" d="M104 368l7 103q41 0 90.5 -13.5t101 -40t89.5 -74.5t46 -109q17 -136 -7 -234h-1l5 -12q-17 -5 -43 -16q-30 -18 -41 -54.5t3 -72.5q26 -66 104 -50q8 2 38 15l40 -85q-76 -33 -139.5 -5t-91.5 102q-30 72 -8 135t91 90q0 1 0.5 4t0.5 4q-48 -38 -124.5 -50.5t-131.5 4.5 q-54 15 -81.5 60.5t-19.5 96.5q17 104 128 136q50 14 102 8.5t89 -27.5q-64 85 -247 85zM386 121q0 44 -11 95q-18 16 -54 27q-89 26 -155 -21q-50 -36 -46 -84q3 -36 40 -59q35 -25 111 -12.5t115 54.5z" />
<glyph unicode="&#x106;" horiz-adv-x="553" d="M503 554l-56 -44q-38 52 -115 50q-85 -2 -143 -69q-79 -94 -47 -260q12 -64 45 -109.5t75 -62t92.5 12t92.5 105.5l51 -17q-35 -86 -82.5 -122t-94.5 -38q-68 -3 -122.5 18.5t-88 61.5t-55 93.5t-23.5 115t7 125.5q22 117 111 197t204 63q31 -5 55.5 -17t42 -30.5 t28.5 -34.5t23 -38zM224 753l-30 27l68 199l97 -70z" />
<glyph unicode="&#x107;" d="M429 371l-27 -50q0 1 -5 7.5t-6.5 8.5t-6 8.5t-7.5 9.5l-8.5 8.5t-10 8.5t-10.5 6.5t-12 5.5q-39 15 -73.5 4t-65 -34.5t-48.5 -60t-24 -74.5t8 -76.5t47 -66.5q20 -17 66 -21t99 17t77 69l26 -25q-22 -43 -59 -71t-79 -38t-85.5 -6t-80.5 22q-60 29 -90 88.5t-22 130.5 q9 73 55.5 125.5t106 71.5t125 3t110.5 -71zM206 522l-30 27l68 199l97 -70z" />
<glyph unicode="&#x108;" horiz-adv-x="553" d="M503 554l-56 -44q-38 52 -115 50q-85 -2 -143 -69q-79 -94 -47 -260q12 -64 45 -109.5t75 -62t92.5 12t92.5 105.5l51 -17q-35 -86 -82.5 -122t-94.5 -38q-68 -3 -122.5 18.5t-88 61.5t-55 93.5t-23.5 115t7 125.5q22 117 111 197t204 63q31 -5 55.5 -17t42 -30.5 t28.5 -34.5t23 -38zM277 957l165 -123l-61 -75l-106 149l-103 -149l-61 75z" />
<glyph unicode="&#x109;" d="M429 371l-27 -50q0 1 -5 7.5t-6.5 8.5t-6 8.5t-7.5 9.5l-8.5 8.5t-10 8.5t-10.5 6.5t-12 5.5q-39 15 -73.5 4t-65 -34.5t-48.5 -60t-24 -74.5t8 -76.5t47 -66.5q20 -17 66 -21t99 17t77 69l26 -25q-22 -43 -59 -71t-79 -38t-85.5 -6t-80.5 22q-60 29 -90 88.5t-22 130.5 q9 73 55.5 125.5t106 71.5t125 3t110.5 -71zM259 726l165 -123l-61 -75l-106 149l-103 -149l-61 75z" />
<glyph unicode="&#x10a;" horiz-adv-x="553" d="M503 554l-56 -44q-38 52 -115 50q-85 -2 -143 -69q-79 -94 -47 -260q12 -64 45 -109.5t75 -62t92.5 12t92.5 105.5l51 -17q-35 -86 -82.5 -122t-94.5 -38q-68 -3 -122.5 18.5t-88 61.5t-55 93.5t-23.5 115t7 125.5q22 117 111 197t204 63q31 -5 55.5 -17t42 -30.5 t28.5 -34.5t23 -38zM274 753q-30 0 -49.5 18t-24.5 47q-11 66 43 90q51 23 82 -7.5t24 -78.5q-4 -28 -24 -48.5t-51 -20.5z" />
<glyph unicode="&#x10b;" d="M429 371l-27 -50q0 1 -5 7.5t-6.5 8.5t-6 8.5t-7.5 9.5l-8.5 8.5t-10 8.5t-10.5 6.5t-12 5.5q-39 15 -73.5 4t-65 -34.5t-48.5 -60t-24 -74.5t8 -76.5t47 -66.5q20 -17 66 -21t99 17t77 69l26 -25q-22 -43 -59 -71t-79 -38t-85.5 -6t-80.5 22q-60 29 -90 88.5t-22 130.5 q9 73 55.5 125.5t106 71.5t125 3t110.5 -71zM257 522q-30 0 -49.5 18t-24.5 47q-11 66 43 90q51 23 82 -7.5t24 -78.5q-4 -28 -24 -48.5t-51 -20.5z" />
<glyph unicode="&#x10c;" horiz-adv-x="553" d="M503 554l-56 -44q-38 52 -115 50q-85 -2 -143 -69q-79 -94 -47 -260q12 -64 45 -109.5t75 -62t92.5 12t92.5 105.5l51 -17q-35 -86 -82.5 -122t-94.5 -38q-68 -3 -122.5 18.5t-88 61.5t-55 93.5t-23.5 115t7 125.5q22 117 111 197t204 63q31 -5 55.5 -17t42 -30.5 t28.5 -34.5t23 -38zM276 759l-165 123l61 75l106 -149l103 149l61 -75z" />
<glyph unicode="&#x10d;" d="M429 371l-27 -50q0 1 -5 7.5t-6.5 8.5t-6 8.5t-7.5 9.5l-8.5 8.5t-10 8.5t-10.5 6.5t-12 5.5q-39 15 -73.5 4t-65 -34.5t-48.5 -60t-24 -74.5t8 -76.5t47 -66.5q20 -17 66 -21t99 17t77 69l26 -25q-22 -43 -59 -71t-79 -38t-85.5 -6t-80.5 22q-60 29 -90 88.5t-22 130.5 q9 73 55.5 125.5t106 71.5t125 3t110.5 -71zM258 528l-165 123l61 75l106 -149l103 149l61 -75z" />
<glyph unicode="&#x10e;" horiz-adv-x="575" d="M443 662q44 -21 64 -71.5t18 -103t-17 -101.5q-15 -48 -44.5 -95t-60.5 -82t-74 -71t-72 -56.5t-67.5 -43t-47 -26.5t-23.5 -12l-38 22l-49 559l-2 19l18 8q10 5 33.5 14t73.5 24t97.5 24.5t101 9t89.5 -17.5zM131 57q260 152 270 374q4 102 -64 151t-162 5 q-10 -9 -21 -141.5t-17 -260.5zM287 759l-165 123l61 75l106 -149l103 149l61 -75z" />
<glyph unicode="&#x10f;" horiz-adv-x="796" d="M398 19l-3 33q-52 -44 -124 -50.5t-129 22.5q-58 28 -86.5 87t-24.5 131q17 147 143 194q102 36 192 -13l-15 203q96 39 136 51l-42 -677zM188 87q38 -36 98 -32.5t105 49.5l-20 260q-6 4 -36 19q-54 23 -105 -3.5t-77 -76t-20 -112t55 -104.5zM752 625l-84 -204l-78 44 l79 116l-62 4q34 85 50 108z" />
<glyph unicode="&#x110;" horiz-adv-x="655" d="M523 662q44 -21 64 -71.5t18 -103t-17 -101.5q-15 -48 -44.5 -95t-60.5 -82t-74 -71t-72 -56.5t-67.5 -43t-47 -26.5t-23.5 -12l-38 22l-27 300l-101 -5v73l96 -3l-17 194l-2 19l18 8q10 5 33.5 14t73.5 24t97.5 24.5t101 9t89.5 -17.5zM397 337l-172 -10l-14 -270 q260 152 270 374q4 102 -64 151t-162 5q-13 -10 -26 -203l168 -4v-43z" />
<glyph unicode="&#x111;" horiz-adv-x="557" d="M517 537l-39 -2l-33 -535l-47 19l-3 33q-52 -44 -124 -50.5t-129 22.5q-58 28 -86.5 87t-24.5 131q17 147 143 194q102 36 192 -13l-8 105l-205 -11v73l201 -6l-3 42q96 39 136 51l-6 -96l36 -1v-43zM188 87q38 -36 98 -32.5t105 49.5l-20 260q-6 4 -36 19 q-54 23 -105 -3.5t-77 -76t-20 -112t55 -104.5z" />
<glyph unicode="&#x112;" horiz-adv-x="550" d="M149 317q-8 -109 -14 -277l305 153q-3 -121 -5 -135q-1 -5 -76.5 -18.5t-150.5 -24.5l-75 -11l-53 -4l-49 584l-1 15l12 9l1 1q90 61 200 69q139 10 257 -78l-80 -87q-128 98 -226 91q-24 -1 -43 -252l201 59l-6 -112zM447 777l-254 -20v83l254 -10v-53z" />
<glyph unicode="&#x113;" horiz-adv-x="521" d="M425 141l26 -25q-29 -57 -83.5 -87.5t-111 -28.5t-109.5 24q-60 29 -90.5 85t-25.5 128q5 64 46.5 120t101.5 78q68 26 142.5 9.5t106.5 -68.5q35 -56 -10.5 -110t-126 -84t-156.5 -32q13 -47 48 -73q32 -24 79.5 -25.5t93 22t69.5 67.5zM130 197q0 -11 78 19t143 72.5 t39 64.5q-43 36 -91 38t-84.5 -23t-60.5 -71t-24 -100zM417 543l-254 -20v83l254 -10v-53z" />
<glyph unicode="&#x114;" horiz-adv-x="550" d="M149 317q-8 -109 -14 -277l305 153q-3 -121 -5 -135q-1 -5 -76.5 -18.5t-150.5 -24.5l-75 -11l-53 -4l-49 584l-1 15l12 9l1 1q90 61 200 69q139 10 257 -78l-80 -87q-128 98 -226 91q-24 -1 -43 -252l201 59l-6 -112zM101 928v3l89 -7q-2 -23 0 -46q13 -74 86 -74 q72 1 84 79q1 15 -1 41l94 7q5 -82 -44 -131.5t-129 -49.5q-85 0 -136 48.5t-43 129.5z" />
<glyph unicode="&#x115;" horiz-adv-x="521" d="M425 141l26 -25q-29 -57 -83.5 -87.5t-111 -28.5t-109.5 24q-60 29 -90.5 85t-25.5 128q5 64 46.5 120t101.5 78q68 26 142.5 9.5t106.5 -68.5q35 -56 -10.5 -110t-126 -84t-156.5 -32q13 -47 48 -73q32 -24 79.5 -25.5t93 22t69.5 67.5zM130 197q0 -11 78 19t143 72.5 t39 64.5q-43 36 -91 38t-84.5 -23t-60.5 -71t-24 -100zM86 697v3l89 -7q-2 -23 0 -46q13 -74 86 -74q72 1 84 79q1 15 -1 41l94 7q5 -82 -44 -131.5t-129 -49.5q-85 0 -136 48.5t-43 129.5z" />
<glyph unicode="&#x116;" horiz-adv-x="550" d="M149 317q-8 -109 -14 -277l305 153q-3 -121 -5 -135q-1 -5 -76.5 -18.5t-150.5 -24.5l-75 -11l-53 -4l-49 584l-1 15l12 9l1 1q90 61 200 69q139 10 257 -78l-80 -87q-128 98 -226 91q-24 -1 -43 -252l201 59l-6 -112zM273 753q-30 0 -49.5 18t-24.5 47q-11 66 43 90 q51 23 82 -7.5t24 -78.5q-4 -28 -24 -48.5t-51 -20.5z" />
<glyph unicode="&#x117;" horiz-adv-x="521" d="M425 141l26 -25q-29 -57 -83.5 -87.5t-111 -28.5t-109.5 24q-60 29 -90.5 85t-25.5 128q5 64 46.5 120t101.5 78q68 26 142.5 9.5t106.5 -68.5q35 -56 -10.5 -110t-126 -84t-156.5 -32q13 -47 48 -73q32 -24 79.5 -25.5t93 22t69.5 67.5zM130 197q0 -11 78 19t143 72.5 t39 64.5q-43 36 -91 38t-84.5 -23t-60.5 -71t-24 -100zM258 522q-30 0 -49.5 18t-24.5 47q-11 66 43 90q51 23 82 -7.5t24 -78.5q-4 -28 -24 -48.5t-51 -20.5z" />
<glyph unicode="&#x118;" horiz-adv-x="550" d="M149 317q-8 -109 -14 -277l305 153q-3 -121 -5 -135q-1 -5 -57 -15l21 -55q-17 -5 -43 -16q-30 -18 -41 -54.5t3 -72.5q26 -66 104 -50q8 2 38 15l40 -85q-76 -33 -139.5 -5t-91.5 102q-26 64 -11.5 122t66.5 89l-191 -29l-53 -4l-49 584l-1 15l12 9l1 1q90 61 200 69 q139 10 257 -78l-80 -87q-128 98 -226 91q-24 -1 -43 -252l201 59l-6 -112z" />
<glyph unicode="&#x119;" horiz-adv-x="521" d="M425 141l26 -25q-24 -49 -69 -79l19 -49q-17 -5 -43 -16q-30 -18 -41 -54.5t3 -72.5q26 -66 104 -50q8 2 38 15l40 -85q-76 -33 -139.5 -5t-91.5 102q-43 110 18 181q-78 -11 -142 21q-60 29 -90.5 85t-25.5 128q5 64 46.5 120t101.5 78q68 26 142.5 9.5t106.5 -68.5 q35 -56 -10.5 -110t-126 -84t-156.5 -32q13 -47 48 -73q32 -24 79.5 -25.5t93 22t69.5 67.5zM130 197q0 -11 78 19t143 72.5t39 64.5q-43 36 -91 38t-84.5 -23t-60.5 -71t-24 -100z" />
<glyph unicode="&#x11a;" horiz-adv-x="550" d="M149 317q-8 -109 -14 -277l305 153q-3 -121 -5 -135q-1 -5 -76.5 -18.5t-150.5 -24.5l-75 -11l-53 -4l-49 584l-1 15l12 9l1 1q90 61 200 69q139 10 257 -78l-80 -87q-128 98 -226 91q-24 -1 -43 -252l201 59l-6 -112zM274 759l-165 123l61 75l106 -149l103 149l61 -75z " />
<glyph unicode="&#x11b;" horiz-adv-x="521" d="M425 141l26 -25q-29 -57 -83.5 -87.5t-111 -28.5t-109.5 24q-60 29 -90.5 85t-25.5 128q5 64 46.5 120t101.5 78q68 26 142.5 9.5t106.5 -68.5q35 -56 -10.5 -110t-126 -84t-156.5 -32q13 -47 48 -73q32 -24 79.5 -25.5t93 22t69.5 67.5zM130 197q0 -11 78 19t143 72.5 t39 64.5q-43 36 -91 38t-84.5 -23t-60.5 -71t-24 -100zM260 528l-165 123l61 75l106 -149l103 149l61 -75z" />
<glyph unicode="&#x11c;" horiz-adv-x="580" d="M455 522q-28 26 -74.5 33.5t-94.5 -6t-88.5 -52t-57 -104.5t0.5 -162q11 -56 39 -101.5t68 -63.5q48 -23 105.5 0t89.5 75t11 104l-141 -30q-4 6 -9.5 60t-5.5 64l217 -33q19 -50 12 -101t-34.5 -90.5t-70 -70.5t-93.5 -39.5t-104 2.5q-112 28 -161.5 147t-25.5 260 q22 117 111 197t204 63q59 -9 98 -46t55 -80zM290 957l165 -123l-61 -75l-106 149l-103 -149l-61 75z" />
<glyph unicode="&#x11d;" horiz-adv-x="583" d="M513 404l-34 -437q-16 -70 -57 -111q-35 -32 -94.5 -49t-115.5 -16t-109 7l9 87q18 -5 38 -9t53 -9t63 -3t60 9.5t52 28t32 51.5l-6 107q-52 -49 -127.5 -58t-134.5 22q-58 28 -86.5 87t-24.5 131q17 147 143 194q52 18 105.5 13t96.5 -31l-5 37q62 -18 142 -51zM400 113 q-12 179 -18 243q-19 15 -47 27q-54 23 -105 -3.5t-77 -76t-20 -112t55 -104.5q41 -38 104 -32t108 58zM292 726l165 -123l-61 -75l-106 149l-103 -149l-61 75z" />
<glyph unicode="&#x11e;" horiz-adv-x="580" d="M455 522q-28 26 -74.5 33.5t-94.5 -6t-88.5 -52t-57 -104.5t0.5 -162q11 -56 39 -101.5t68 -63.5q48 -23 105.5 0t89.5 75t11 104l-141 -30q-4 6 -9.5 60t-5.5 64l217 -33q19 -50 12 -101t-34.5 -90.5t-70 -70.5t-93.5 -39.5t-104 2.5q-112 28 -161.5 147t-25.5 260 q22 117 111 197t204 63q59 -9 98 -46t55 -80zM116 928v3l89 -7q-2 -23 0 -46q13 -74 86 -74q72 1 84 79q1 15 -1 41l94 7q5 -82 -44 -131.5t-129 -49.5q-85 0 -136 48.5t-43 129.5z" />
<glyph unicode="&#x11f;" horiz-adv-x="583" d="M513 404l-34 -437q-16 -70 -57 -111q-35 -32 -94.5 -49t-115.5 -16t-109 7l9 87q18 -5 38 -9t53 -9t63 -3t60 9.5t52 28t32 51.5l-6 107q-52 -49 -127.5 -58t-134.5 22q-58 28 -86.5 87t-24.5 131q17 147 143 194q52 18 105.5 13t96.5 -31l-5 37q62 -18 142 -51zM400 113 q-12 179 -18 243q-19 15 -47 27q-54 23 -105 -3.5t-77 -76t-20 -112t55 -104.5q41 -38 104 -32t108 58zM117 697v3l89 -7q-2 -23 0 -46q13 -74 86 -74q72 1 84 79q1 15 -1 41l94 7q5 -82 -44 -131.5t-129 -49.5q-85 0 -136 48.5t-43 129.5z" />
<glyph unicode="&#x120;" horiz-adv-x="580" d="M455 522q-28 26 -74.5 33.5t-94.5 -6t-88.5 -52t-57 -104.5t0.5 -162q11 -56 39 -101.5t68 -63.5q48 -23 105.5 0t89.5 75t11 104l-141 -30q-4 6 -9.5 60t-5.5 64l217 -33q19 -50 12 -101t-34.5 -90.5t-70 -70.5t-93.5 -39.5t-104 2.5q-112 28 -161.5 147t-25.5 260 q22 117 111 197t204 63q59 -9 98 -46t55 -80zM288 753q-30 0 -49.5 18t-24.5 47q-11 66 43 90q51 23 82 -7.5t24 -78.5q-4 -28 -24 -48.5t-51 -20.5z" />
<glyph unicode="&#x121;" horiz-adv-x="583" d="M513 404l-34 -437q-16 -70 -57 -111q-35 -32 -94.5 -49t-115.5 -16t-109 7l9 87q18 -5 38 -9t53 -9t63 -3t60 9.5t52 28t32 51.5l-6 107q-52 -49 -127.5 -58t-134.5 22q-58 28 -86.5 87t-24.5 131q17 147 143 194q52 18 105.5 13t96.5 -31l-5 37q62 -18 142 -51zM400 113 q-12 179 -18 243q-19 15 -47 27q-54 23 -105 -3.5t-77 -76t-20 -112t55 -104.5q41 -38 104 -32t108 58zM289 522q-30 0 -49.5 18t-24.5 47q-11 66 43 90q51 23 82 -7.5t24 -78.5q-4 -28 -24 -48.5t-51 -20.5z" />
<glyph unicode="&#x122;" horiz-adv-x="580" d="M184 -82l50 87q-3 0 -9 2q-112 28 -161.5 147t-25.5 260q22 117 111 197t204 63q59 -9 98 -46t55 -80l-51 -26q-28 26 -74.5 33.5t-94.5 -6t-88.5 -52t-57 -104.5t0.5 -162q11 -56 39 -101.5t68 -63.5q48 -23 105.5 0t89.5 75t11 104l-141 -30q-4 6 -9.5 60t-5.5 64 l217 -33q25 -77 2 -143.5t-85 -112.5t-136 -50l-35 -38q53 -32 70.5 -88.5t-7.5 -121.5q-28 -74 -91.5 -102t-139.5 5l40 85q30 -13 38 -15q78 -16 104 50q14 35 -1.5 71.5t-46.5 55.5q-26 11 -43 16z" />
<glyph unicode="&#x123;" horiz-adv-x="583" d="M513 404l-34 -437q-16 -70 -57 -111q-35 -32 -94.5 -49t-115.5 -16t-109 7l9 87q18 -5 38 -9t53 -9t63 -3t60 9.5t52 28t32 51.5l-6 107q-52 -49 -127.5 -58t-134.5 22q-58 28 -86.5 87t-24.5 131q17 147 143 194q52 18 105.5 13t96.5 -31l-5 37q62 -18 142 -51zM400 113 q-12 179 -18 243q-19 15 -47 27q-54 23 -105 -3.5t-77 -76t-20 -112t55 -104.5q41 -38 104 -32t108 58zM210 720l84 204l78 -44l-79 -116l62 -4q-34 -85 -50 -108z" />
<glyph unicode="&#x124;" horiz-adv-x="675" d="M514 5l-18 297l-342 21q-4 -83 -13 -318l-53 -4l-48 611q1 1 9.5 7t15.5 11t20.5 13t26.5 14t32 13t39 12q-14 -85 -27 -314l333 59l-15 254q20 -5 38.5 -11.5t32 -13t26.5 -14.5t20 -12.5t15 -10.5t9 -7l-48 -611zM338 957l165 -123l-61 -75l-106 149l-103 -149l-61 75z " />
<glyph unicode="&#x125;" horiz-adv-x="524" d="M77 19l-47 607q80 33 142 51q-11 -59 -26 -284q53 49 121 57q57 7 114.5 -25.5t65.5 -87.5q5 -39 6 -122.5t-1 -148.5l-1 -64l-56 20q0 29 -1 73t-15 128.5t-39 106.5q-34 33 -92 25.5t-108 -58.5q-12 -189 -16 -297zM262 956l165 -123l-61 -75l-106 149l-103 -149 l-61 75z" />
<glyph unicode="&#x126;" horiz-adv-x="675" d="M514 5l-18 297l-342 21q-4 -83 -13 -318l-53 -4l-48 611q1 1 9.5 7t15.5 11t20.5 13t26.5 14t32 13t39 12q-14 -85 -27 -314l333 59l-15 254q20 -5 38.5 -11.5t32 -13t26.5 -14.5t20 -12.5t15 -10.5t9 -7l-48 -611zM447 777l-254 -20v83l254 -10v-53z" />
<glyph unicode="&#x127;" horiz-adv-x="524" d="M77 19l-47 607q80 33 142 51q-11 -59 -26 -284q53 49 121 57q57 7 114.5 -25.5t65.5 -87.5q5 -39 6 -122.5t-1 -148.5l-1 -64l-56 20q0 29 -1 73t-15 128.5t-39 106.5q-34 33 -92 25.5t-108 -58.5q-12 -189 -16 -297zM447 777l-254 -20v83l254 -10v-53z" />
<glyph unicode="&#x128;" horiz-adv-x="328" d="M277 657l1 -22l-33 -13l-41 -538l46 13l28 -97l-247 22l-1 22l109 21l-33 521l-48 -14l-28 107zM36 792l-43 44q9 26 36 43.5t58 17.5q19 0 44 -16.5t46 -33t42.5 -26.5t39 5t29.5 60l47 -20q-14 -49 -57.5 -84.5t-84.5 -24.5q-13 3 -36 22t-40.5 33.5t-40 12 t-40.5 -32.5z" />
<glyph unicode="&#x129;" horiz-adv-x="242" d="M77 19l-47 387q80 33 142 51q-12 -79 -28.5 -243t-19.5 -214zM-7 551l-43 44q9 26 36 43.5t58 17.5q19 0 44 -16.5t46 -33t42.5 -26.5t39 5t29.5 60l47 -20q-14 -49 -57.5 -84.5t-84.5 -24.5q-13 3 -36 22t-40.5 33.5t-40 12t-40.5 -32.5z" />
<glyph unicode="&#x12a;" horiz-adv-x="328" d="M277 657l1 -22l-33 -13l-41 -538l46 13l28 -97l-247 22l-1 22l109 21l-33 521l-48 -14l-28 107zM297 777l-254 -20v83l254 -10v-53z" />
<glyph unicode="&#x12b;" horiz-adv-x="242" d="M77 19l-47 387q80 33 142 51q-12 -79 -28.5 -243t-19.5 -214zM247 547l-254 -20v83l254 -10v-53z" />
<glyph unicode="&#x12c;" horiz-adv-x="328" d="M277 657l1 -22l-33 -13l-41 -538l46 13l28 -97l-247 22l-1 22l109 21l-33 521l-48 -14l-28 107zM-10 928v3l89 -7q-2 -23 0 -46q13 -74 86 -74q72 1 84 79q1 15 -1 41l94 7q5 -82 -44 -131.5t-129 -49.5q-85 0 -136 48.5t-43 129.5z" />
<glyph unicode="&#x12d;" horiz-adv-x="242" d="M77 19l-47 387q80 33 142 51q-12 -79 -28.5 -243t-19.5 -214zM-53 697v3l89 -7q-2 -23 0 -46q13 -74 86 -74q72 1 84 79q1 15 -1 41l94 7q5 -82 -44 -131.5t-129 -49.5q-85 0 -136 48.5t-43 129.5z" />
<glyph unicode="&#x12e;" horiz-adv-x="328" d="M152 54l-3 -1q-41 -12 -68 -36l-50 5l-1 22l109 21l-33 521l-48 -14l-28 107l247 -22l1 -22l-33 -13l-41 -538l46 13l28 -97l-109 9zM47 -178q-23 57 -14 109.5t48 85.5l88 -8l8 -21q-17 -5 -43 -16q-30 -18 -41 -54.5t3 -72.5q26 -66 104 -50q8 2 38 15l40 -85 q-76 -33 -139.5 -5t-91.5 102z" />
<glyph unicode="&#x12f;" horiz-adv-x="242" d="M128 53l3 1l25 -66q-17 -5 -43 -16q-30 -18 -41 -54.5t3 -72.5q26 -66 104 -50q8 2 38 15l40 -85q-76 -33 -139.5 -5t-91.5 102q-25 63 -12 119.5t61 88.5l-45 376q80 33 142 51q-21 -141 -44 -404zM29 552v70l111 55v-97z" />
<glyph unicode="&#x130;" horiz-adv-x="328" d="M277 657l1 -22l-33 -13l-41 -538l46 13l28 -97l-247 22l-1 22l109 21l-33 521l-48 -14l-28 107zM162 753q-30 0 -49.5 18t-24.5 47q-11 66 43 90q51 23 82 -7.5t24 -78.5q-4 -28 -24 -48.5t-51 -20.5z" />
<glyph unicode="&#x131;" horiz-adv-x="257" d="M33 397v70l191 2l-40 -469l-47 19l-45 370zM162 523q-30 0 -49.5 18t-24.5 47q-11 66 43 90q51 23 82 -7.5t24 -78.5q-4 -28 -24 -48.5t-51 -20.5z" />
<glyph unicode="&#x132;" horiz-adv-x="843" d="M277 657l1 -22l-33 -13l-41 -538l46 13l28 -97l-247 22l-1 22l109 21l-33 521l-48 -14l-28 107zM517 0q-72 0 -129.5 73.5t-66.5 148.5q-10 73 21 84l167 13q0 -9 -5.5 -53.5t-9.5 -50.5l-126 42q-2 -50 30.5 -99.5t83 -76t94.5 -15.5q33 9 50.5 40t15.5 74l-26 396 l-48 -14l-28 117l247 -32l1 -22l-33 -13l-36 -451q-23 -161 -202 -161z" />
<glyph unicode="&#x133;" horiz-adv-x="427" d="M77 19l-47 387q80 33 142 51q-12 -79 -28.5 -243t-19.5 -214zM29 552v70l111 55v-97zM372 404l-34 -437q-16 -70 -57 -111q-42 -38 -119 -55v63q110 27 104 143q-22 365 -36 448q62 -18 142 -51zM362 622v-70l-111 28v97z" />
<glyph unicode="&#x134;" horiz-adv-x="550" d="M229 0q-72 0 -129.5 73.5t-66.5 148.5q-10 73 21 84l167 13q0 -9 -5.5 -53.5t-9.5 -50.5l-126 42q-2 -50 30.5 -99.5t83 -76t94.5 -15.5q33 9 50.5 40t15.5 74l-26 396l-48 -14l-28 117l247 -32l1 -22l-33 -13l-36 -451q-23 -161 -202 -161zM375 957l165 -123l-61 -75 l-106 149l-103 -149l-61 75z" />
<glyph unicode="&#x135;" horiz-adv-x="240" d="M170 404l-34 -437q-16 -70 -57 -111q-42 -38 -119 -55v63q110 27 104 143q-22 365 -36 448q62 -18 142 -51zM121 726l165 -123l-61 -75l-106 149l-103 -149l-61 75z" />
<glyph unicode="&#x136;" horiz-adv-x="593" d="M177 681q-5 -23 -9.5 -72.5t-7.5 -92.5t-7.5 -117t-6.5 -103l319 381l78 -104l-301 -258l295 -220l-80 -95l-257 280l-58 -48q-6 -103 -11 -227l-53 -4l-48 611q74 52 147 69zM184 -82l77 44q53 -32 70.5 -88.5t-7.5 -121.5q-28 -74 -91.5 -102t-139.5 5l40 85 q30 -13 38 -15q78 -16 104 50q14 35 -1.5 71.5t-46.5 55.5q-26 11 -43 16z" />
<glyph unicode="&#x137;" horiz-adv-x="584" d="M77 19l-47 607q4 2 20 9t30 12.5t37 14t47 15.5l-32 -541l300 347l82 -98l-223 -184l216 -101l-70 -99l-191 163l-118 -97l-4 -67zM184 -82l77 44q53 -32 70.5 -88.5t-7.5 -121.5q-28 -74 -91.5 -102t-139.5 5l40 85q30 -13 38 -15q78 -16 104 50q14 35 -1.5 71.5 t-46.5 55.5q-26 11 -43 16z" />
<glyph unicode="&#x138;" horiz-adv-x="577" d="M77 15l-47 482q2 1 26.5 9.5t50.5 16t56 14.5l-32 -429l299 275l81 -77l-222 -146l215 -81l-70 -78l-189 129l-118 -77l-4 -53z" />
<glyph unicode="&#x139;" horiz-adv-x="533" d="M176 681q-9 -56 -16.5 -149.5t-11 -150.5t-9.5 -183.5t-6 -132.5l338 66l12 -129l-356 2l-49 -3l-48 611q75 52 146 69zM214 753l-30 27l68 199l97 -70z" />
<glyph unicode="&#x13a;" horiz-adv-x="239" d="M64 155l-34 474q2 1 26 11.5t50 20.5t56 19l-26 -485q-5 -93 63 -128v-67q-49 16 -78 44q-41 41 -57 111zM67 752l-30 27l68 199l97 -70z" />
<glyph unicode="&#x13b;" horiz-adv-x="533" d="M176 681q-9 -56 -16.5 -149.5t-11 -150.5t-9.5 -183.5t-6 -132.5l338 66l12 -129l-356 2l-49 -3l-48 611q75 52 146 69zM184 -82l77 44q53 -32 70.5 -88.5t-7.5 -121.5q-28 -74 -91.5 -102t-139.5 5l40 85q30 -13 38 -15q78 -16 104 50q14 35 -1.5 71.5t-46.5 55.5 q-26 11 -43 16z" />
<glyph unicode="&#x13c;" horiz-adv-x="239" d="M64 155l-34 474q2 1 26 11.5t50 20.5t56 19l-26 -485q-5 -93 63 -128v-67q-49 16 -78 44q-41 41 -57 111zM84 -82l77 44q53 -32 70.5 -88.5t-7.5 -121.5q-28 -74 -91.5 -102t-139.5 5l40 85q30 -13 38 -15q78 -16 104 50q14 35 -1.5 71.5t-46.5 55.5q-26 11 -43 16z" />
<glyph unicode="&#x13d;" horiz-adv-x="533" d="M176 681q-9 -56 -16.5 -149.5t-11 -150.5t-9.5 -183.5t-6 -132.5l338 66l12 -129l-356 2l-49 -3l-48 611q75 52 146 69zM347 856l-84 -204l-78 44l79 116l-62 4q34 85 50 108z" />
<glyph unicode="&#x13e;" horiz-adv-x="407" d="M64 155l-34 474q2 1 26 11.5t50 20.5t56 19l-26 -485q-5 -93 63 -128v-67q-49 16 -78 44q-41 41 -57 111zM374 625l-84 -204l-78 44l79 116l-62 4q34 85 50 108z" />
<glyph unicode="&#x13f;" horiz-adv-x="533" d="M176 681q-9 -56 -16.5 -149.5t-11 -150.5t-9.5 -183.5t-6 -132.5l338 66l12 -129l-356 2l-49 -3l-48 611q75 52 146 69zM316 531h-100v100h100v-100z" />
<glyph unicode="&#x140;" horiz-adv-x="357" d="M64 155l-34 474q2 1 26 11.5t50 20.5t56 19l-26 -485q-5 -93 63 -128v-67q-49 16 -78 44q-41 41 -57 111zM324 300h-100v100h100v-100z" />
<glyph unicode="&#x141;" horiz-adv-x="533" d="M249 307l-108 -67l-8 -175l338 66l12 -129l-356 2l-49 -3l-15 191l-31 -19l-38 74l62 29l-26 336q75 52 146 69q-17 -107 -31 -364l79 37z" />
<glyph unicode="&#x142;" horiz-adv-x="239" d="M249 307l-111 -69l-2 -43q-5 -93 63 -128v-67q-49 16 -78 44q-41 41 -57 111l-3 36l-29 -18l-38 74l61 28l-25 354q2 1 26 11.5t50 20.5t56 19l-20 -364l82 38z" />
<glyph unicode="&#x143;" horiz-adv-x="691" d="M520 188q-3 47 -5.5 151t-8 188t-17.5 154q20 -5 38.5 -11.5t32 -13t27 -14.5t20.5 -12.5t15 -10.5t9 -7l-48 -611l-53 4l-360 588q-7 -66 -12 -148t-7 -136.5t-5.5 -159t-4.5 -144.5l-53 -4l-48 611l9 6q9 7 15.5 11.5t20.5 12.5t27 14.5t32 13t39 11.5zM293 756l-30 27 l68 199l97 -70z" />
<glyph unicode="&#x144;" horiz-adv-x="575" d="M77 19l-47 387q80 33 142 51l-11 -81q59 61 136 74q77 12 135.5 -21t66.5 -92q5 -39 5.5 -122.5t-1.5 -148.5l-2 -64l-56 20q0 29 -1 73t-15 128.5t-39 106.5q-26 23 -67 26.5t-87.5 -15.5t-80.5 -60l-6 -7q-21 -200 -25 -274zM235 521l-30 27l68 199l97 -70z" />
<glyph unicode="&#x145;" horiz-adv-x="691" d="M520 188q-3 47 -5.5 151t-8 188t-17.5 154q20 -5 38.5 -11.5t32 -13t27 -14.5t20.5 -12.5t15 -10.5t9 -7l-48 -611l-53 4l-360 588q-7 -66 -12 -148t-7 -136.5t-5.5 -159t-4.5 -144.5l-53 -4l-48 611l9 6q9 7 15.5 11.5t20.5 12.5t27 14.5t32 13t39 11.5zM274 -82l77 44 q53 -32 70.5 -88.5t-7.5 -121.5q-28 -74 -91.5 -102t-139.5 5l40 85q30 -13 38 -15q78 -16 104 50q14 35 -1.5 71.5t-46.5 55.5q-26 11 -43 16z" />
<glyph unicode="&#x146;" horiz-adv-x="575" d="M77 19l-47 387q80 33 142 51l-11 -81q59 61 136 74q77 12 135.5 -21t66.5 -92q5 -39 5.5 -122.5t-1.5 -148.5l-2 -64l-56 20q0 29 -1 73t-15 128.5t-39 106.5q-26 23 -67 26.5t-87.5 -15.5t-80.5 -60l-6 -7q-21 -200 -25 -274zM274 -82l77 44q53 -32 70.5 -88.5 t-7.5 -121.5q-28 -74 -91.5 -102t-139.5 5l40 85q30 -13 38 -15q78 -16 104 50q14 35 -1.5 71.5t-46.5 55.5q-26 11 -43 16z" />
<glyph unicode="&#x147;" horiz-adv-x="691" d="M520 188q-3 47 -5.5 151t-8 188t-17.5 154q20 -5 38.5 -11.5t32 -13t27 -14.5t20.5 -12.5t15 -10.5t9 -7l-48 -611l-53 4l-360 588q-7 -66 -12 -148t-7 -136.5t-5.5 -159t-4.5 -144.5l-53 -4l-48 611l9 6q9 7 15.5 11.5t20.5 12.5t27 14.5t32 13t39 11.5zM345 752 l-165 123l61 75l106 -149l103 149l61 -75z" />
<glyph unicode="&#x148;" horiz-adv-x="575" d="M77 19l-47 387q80 33 142 51l-11 -81q59 61 136 74q77 12 135.5 -21t66.5 -92q5 -39 5.5 -122.5t-1.5 -148.5l-2 -64l-56 20q0 29 -1 73t-15 128.5t-39 106.5q-26 23 -67 26.5t-87.5 -15.5t-80.5 -60l-6 -7q-21 -200 -25 -274zM287 528l-165 123l61 75l106 -149l103 149 l61 -75z" />
<glyph unicode="&#x149;" horiz-adv-x="748" d="M287 19l-47 387q80 33 142 51l-11 -81q59 61 136 74q77 12 135.5 -21t66.5 -92q5 -39 5.5 -122.5t-1.5 -148.5l-2 -64l-56 20q0 29 -1 73t-15 128.5t-39 106.5q-26 23 -67 26.5t-87.5 -15.5t-80.5 -60l-6 -7q-21 -200 -25 -274zM195 383l-84 -204l-78 44l79 116l-62 4 q34 85 50 108z" />
<glyph unicode="&#x14a;" horiz-adv-x="714" d="M410 0q-72 0 -129.5 73.5t-66.5 148.5q-10 73 21 84l167 13q0 -9 -5.5 -53.5t-9.5 -50.5l-126 42q-2 -50 30.5 -99.5t83 -76t94.5 -15.5q33 9 50.5 40t15.5 74l-26 396l-342 -14q-5 -51 -8.5 -105t-6.5 -117.5t-4 -104.5t-3.5 -120t-3.5 -110l-53 -4l-48 611 q64 45 143 69l-1 -5l498 -29l1 -22l-33 -13l-36 -451q-23 -161 -202 -161z" />
<glyph unicode="&#x14b;" horiz-adv-x="575" d="M77 19l-47 387q80 33 142 51l-11 -81q59 61 136 74q77 12 135.5 -21t66.5 -92q5 -39 5.5 -168.5t-1.5 -240.5l-2 -110l-56 20v48t-3 109t-8 142t-16.5 121t-27.5 72q-26 23 -67 26.5t-87.5 -15.5t-80.5 -60l-6 -7q-21 -200 -25 -274z" />
<glyph unicode="&#x14c;" horiz-adv-x="722" d="M38 414q15 81 66.5 149t124.5 97q46 19 132 17.5t133 -24.5q65 -32 110 -96.5t60 -140.5q23 -133 -23 -244t-151 -151q-51 -19 -130.5 -21.5t-132.5 14.5q-112 36 -162.5 148.5t-26.5 251.5zM302 553q-103 -28 -138 -114.5t-12 -208.5q15 -77 61.5 -120.5t108.5 -51.5 q79 -10 144.5 36t84.5 137q33 164 -37.5 250.5t-211.5 71.5zM447 777l-254 -20v83l254 -10v-53z" />
<glyph unicode="&#x14d;" horiz-adv-x="585" d="M32 236q7 62 41 110.5t81.5 72.5t105 30.5t110.5 -15.5q59 -23 98 -71t45 -117q10 -112 -57.5 -180t-178.5 -68q-117 0 -187 64.5t-58 173.5zM270 51q57 1 94 38.5t44 89.5q8 56 -14 103t-67.5 65.5t-113.5 -9.5q-102 -44 -81 -167q9 -54 45.5 -87t92.5 -33zM447 537 l-254 -20v83l254 -10v-53z" />
<glyph unicode="&#x14e;" horiz-adv-x="722" d="M38 414q15 81 66.5 149t124.5 97q46 19 132 17.5t133 -24.5q65 -32 110 -96.5t60 -140.5q23 -133 -23 -244t-151 -151q-51 -19 -130.5 -21.5t-132.5 14.5q-112 36 -162.5 148.5t-26.5 251.5zM302 553q-103 -28 -138 -114.5t-12 -208.5q15 -77 61.5 -120.5t108.5 -51.5 q79 -10 144.5 36t84.5 137q33 164 -37.5 250.5t-211.5 71.5zM187 931v3l89 -7q-2 -23 0 -46q13 -74 86 -74q72 1 84 79q1 15 -1 41l94 7q5 -82 -44 -131.5t-129 -49.5q-85 0 -136 48.5t-43 129.5z" />
<glyph unicode="&#x14f;" horiz-adv-x="585" d="M32 236q7 62 41 110.5t81.5 72.5t105 30.5t110.5 -15.5q59 -23 98 -71t45 -117q10 -112 -57.5 -180t-178.5 -68q-117 0 -187 64.5t-58 173.5zM270 51q57 1 94 38.5t44 89.5q8 56 -14 103t-67.5 65.5t-113.5 -9.5q-102 -44 -81 -167q9 -54 45.5 -87t92.5 -33zM118 697v3 l89 -7q-2 -23 0 -46q13 -74 86 -74q72 1 84 79q1 15 -1 41l94 7q5 -82 -44 -131.5t-129 -49.5q-85 0 -136 48.5t-43 129.5z" />
<glyph unicode="&#x150;" horiz-adv-x="722" d="M38 414q15 81 66.5 149t124.5 97q46 19 132 17.5t133 -24.5q65 -32 110 -96.5t60 -140.5q23 -133 -23 -244t-151 -151q-51 -19 -130.5 -21.5t-132.5 14.5q-112 36 -162.5 148.5t-26.5 251.5zM302 553q-103 -28 -138 -114.5t-12 -208.5q15 -77 61.5 -120.5t108.5 -51.5 q79 -10 144.5 36t84.5 137q33 164 -37.5 250.5t-211.5 71.5zM232 756l-30 27l68 199l97 -70zM435 756l-30 27l68 199l97 -70z" />
<glyph unicode="&#x151;" horiz-adv-x="585" d="M32 236q7 62 41 110.5t81.5 72.5t105 30.5t110.5 -15.5q59 -23 98 -71t45 -117q10 -112 -57.5 -180t-178.5 -68q-117 0 -187 64.5t-58 173.5zM270 51q57 1 94 38.5t44 89.5q8 56 -14 103t-67.5 65.5t-113.5 -9.5q-102 -44 -81 -167q9 -54 45.5 -87t92.5 -33zM163 532 l-30 27l68 199l97 -70zM366 532l-30 27l68 199l97 -70z" />
<glyph unicode="&#x152;" horiz-adv-x="1045" d="M38 414q15 81 66.5 149t124.5 97q46 19 132 17.5t133 -24.5q36 -19 62 -43q15 10 35.5 21.5t71 28t100.5 20t118.5 -15t130.5 -64.5l-80 -87q-128 98 -226 91q-19 -1 -42 -223q-1 -6 -1 -9.5t-1 -8.5t-1 -9l203 57l-6 -112l-197 17q-1 -39 -6.5 -129t-7.5 -147l305 153 q-3 -121 -5 -135q-1 -5 -76.5 -18.5t-150.5 -24.5l-75 -11l-53 -4l-7 85q-40 -43 -95 -64q-51 -19 -130.5 -21.5t-132.5 14.5q-112 36 -162.5 148.5t-26.5 251.5zM302 553q-103 -28 -138 -114.5t-12 -208.5q15 -77 61.5 -120.5t108.5 -51.5q79 -10 144.5 36t84.5 137 q33 164 -37.5 250.5t-211.5 71.5z" />
<glyph unicode="&#x153;" horiz-adv-x="1106" d="M810 141l26 -25q-29 -57 -83.5 -87.5t-111 -28.5t-109.5 24q-41 20 -68 51q-68 -77 -187 -77q-117 0 -187 64.5t-58 173.5q7 62 41 110.5t81.5 72.5t105 30.5t110.5 -15.5q61 -24 97 -70q41 50 97 71q68 26 142.5 9.5t106.5 -68.5q35 -56 -10.5 -110t-126 -84t-156.5 -32 q13 -47 48 -73q32 -24 79.5 -25.5t93 22t69.5 67.5zM270 51q57 1 94 38.5t44 89.5q8 56 -14 103t-67.5 65.5t-113.5 -9.5q-102 -44 -81 -167q9 -54 45.5 -87t92.5 -33zM515 197q0 -11 78 19t143 72.5t39 64.5q-43 36 -91 38t-84.5 -23t-60.5 -71t-24 -100z" />
<glyph unicode="&#x154;" horiz-adv-x="562" d="M484 593q40 -55 20 -112.5t-92 -113.5q-48 -38 -163 -78l263 -191l-85 -98l-245 267l-51 -18q-3 -157 -3 -235q-39 -13 -48 -13l-49 635l-1 17l15 9q6 3 37 9t83.5 9t108 -1t113.5 -26t97 -60zM161 623q-21 -1 -29 -305q108 24 182 74t75 113q-4 37 -44 66t-90.5 42 t-93.5 10zM228 756l-30 27l68 199l97 -70z" />
<glyph unicode="&#x155;" horiz-adv-x="470" d="M77 19l-47 392q4 2 20 9t30 12.5t37 14t47 15.5l-6 -71q44 43 106 56q85 17 156 -30l-48 -119q-60 51 -122 53t-100 -46l-26 -305zM182 522l-30 27l68 199l97 -70z" />
<glyph unicode="&#x156;" horiz-adv-x="562" d="M484 593q40 -55 20 -112.5t-92 -113.5q-48 -38 -163 -78l263 -191l-85 -98l-245 267l-51 -18q-3 -157 -3 -235q-39 -13 -48 -13l-49 635l-1 17l15 9q6 3 37 9t83.5 9t108 -1t113.5 -26t97 -60zM161 623q-21 -1 -29 -305q108 24 182 74t75 113q-4 37 -44 66t-90.5 42 t-93.5 10zM184 -82l77 44q53 -32 70.5 -88.5t-7.5 -121.5q-28 -74 -91.5 -102t-139.5 5l40 85q30 -13 38 -15q78 -16 104 50q14 35 -1.5 71.5t-46.5 55.5q-26 11 -43 16z" />
<glyph unicode="&#x157;" horiz-adv-x="470" d="M77 19l-47 392q4 2 20 9t30 12.5t37 14t47 15.5l-6 -71q44 43 106 56q85 17 156 -30l-48 -119q-60 51 -122 53t-100 -46l-26 -305zM184 -82l77 44q53 -32 70.5 -88.5t-7.5 -121.5q-28 -74 -91.5 -102t-139.5 5l40 85q30 -13 38 -15q78 -16 104 50q14 35 -1.5 71.5 t-46.5 55.5q-26 11 -43 16z" />
<glyph unicode="&#x158;" horiz-adv-x="562" d="M484 593q40 -55 20 -112.5t-92 -113.5q-48 -38 -163 -78l263 -191l-85 -98l-245 267l-51 -18q-3 -157 -3 -235q-39 -13 -48 -13l-49 635l-1 17l15 9q6 3 37 9t83.5 9t108 -1t113.5 -26t97 -60zM161 623q-21 -1 -29 -305q108 24 182 74t75 113q-4 37 -44 66t-90.5 42 t-93.5 10zM280 752l-165 123l61 75l106 -149l103 149l61 -75z" />
<glyph unicode="&#x159;" horiz-adv-x="470" d="M77 19l-47 392q4 2 20 9t30 12.5t37 14t47 15.5l-6 -71q44 43 106 56q85 17 156 -30l-48 -119q-60 51 -122 53t-100 -46l-26 -305zM234 528l-165 123l61 75l106 -149l103 149l61 -75z" />
<glyph unicode="&#x15a;" horiz-adv-x="613" d="M131 361q-55 23 -76 78t-0.5 113t73.5 90q44 27 106 38.5t145.5 -7t152.5 -75.5l-88 -87q-55 47 -93 71t-76 30q-24 2 -52 1t-52 -18t-27 -45q-3 -31 8.5 -54.5t36 -38t50 -23.5t60.5 -19q13 -3 19 -5q89 -26 160 -77t70 -105q-1 -75 -41 -125.5t-85 -71.5 q-52 -24 -122 -30.5t-150 12t-142 63.5l90 87q48 -29 68 -39.5t63 -22.5t93 -13q88 10 125 52.5t19 78.5q-12 21 -65 44t-141.5 52.5t-128.5 45.5zM254 756l-30 27l68 199l97 -70z" />
<glyph unicode="&#x15b;" d="M136 232q-36 12 -53.5 36t-16.5 48q2 67 59 101t130 34q99 0 190 -65l-85 -67q-84 62 -120 67q-21 4 -47.5 -7t-28.5 -30q-3 -28 37 -48.5t91.5 -33t99 -42t56.5 -72.5q-3 -53 -37.5 -89t-80.5 -50t-100 -14q-108 0 -200 58l62 73q98 -49 162 -56q26 -5 71 19 q51 27 31 49q-5 6 -15 11q-76 35 -205 78zM206 522l-30 27l68 199l97 -70z" />
<glyph unicode="&#x15c;" horiz-adv-x="613" d="M131 361q-55 23 -76 78t-0.5 113t73.5 90q44 27 106 38.5t145.5 -7t152.5 -75.5l-88 -87q-55 47 -93 71t-76 30q-24 2 -52 1t-52 -18t-27 -45q-3 -31 8.5 -54.5t36 -38t50 -23.5t60.5 -19q13 -3 19 -5q89 -26 160 -77t70 -105q-1 -75 -41 -125.5t-85 -71.5 q-52 -24 -122 -30.5t-150 12t-142 63.5l90 87q48 -29 68 -39.5t63 -22.5t93 -13q88 10 125 52.5t19 78.5q-12 21 -65 44t-141.5 52.5t-128.5 45.5zM307 950l165 -123l-61 -75l-106 149l-103 -149l-61 75z" />
<glyph unicode="&#x15d;" d="M136 232q-36 12 -53.5 36t-16.5 48q2 67 59 101t130 34q99 0 190 -65l-85 -67q-84 62 -120 67q-21 4 -47.5 -7t-28.5 -30q-3 -28 37 -48.5t91.5 -33t99 -42t56.5 -72.5q-3 -53 -37.5 -89t-80.5 -50t-100 -14q-108 0 -200 58l62 73q98 -49 162 -56q26 -5 71 19 q51 27 31 49q-5 6 -15 11q-76 35 -205 78zM259 726l165 -123l-61 -75l-106 149l-103 -149l-61 75z" />
<glyph unicode="&#x15e;" horiz-adv-x="613" d="M166 -67l40 70q-116 12 -198 73l90 87q48 -29 68 -39.5t63 -22.5t93 -13q88 10 125 52.5t19 78.5q-12 21 -65 44t-141.5 52.5t-128.5 45.5q-55 23 -76 78t-0.5 113t73.5 90q44 27 106 38.5t145.5 -7t152.5 -75.5l-88 -87q-55 47 -93 71t-76 30q-24 2 -52 1t-52 -18 t-27 -45q-3 -31 8.5 -54.5t36 -38t50 -23.5t60.5 -19q13 -3 19 -5q89 -26 160 -77t70 -105q-1 -75 -41 -125.5t-85 -71.5q-69 -31 -158 -31l-21 -23q53 -32 70.5 -88.5t-7.5 -121.5q-28 -74 -91.5 -102t-139.5 5l40 85q30 -13 38 -15q78 -16 104 50q14 35 -1.5 71.5 t-46.5 55.5q-26 11 -43 16z" />
<glyph unicode="&#x15f;" d="M166 -67l39 68q-97 7 -175 57l62 73q98 -49 162 -56q26 -5 71 19q51 27 31 49q-5 6 -15 11q-76 35 -205 78q-36 12 -53.5 36t-16.5 48q2 67 59 101t130 34q99 0 190 -65l-85 -67q-84 62 -120 67q-21 4 -47.5 -7t-28.5 -30q-3 -28 37 -48.5t91.5 -33t99 -42t56.5 -72.5 q-4 -69 -56 -106t-127 -45l-22 -25q53 -32 70.5 -88.5t-7.5 -121.5q-28 -74 -91.5 -102t-139.5 5l40 85q30 -13 38 -15q78 -16 104 50q14 35 -1.5 71.5t-46.5 55.5q-26 11 -43 16z" />
<glyph unicode="&#x160;" horiz-adv-x="613" d="M131 361q-55 23 -76 78t-0.5 113t73.5 90q44 27 106 38.5t145.5 -7t152.5 -75.5l-88 -87q-55 47 -93 71t-76 30q-24 2 -52 1t-52 -18t-27 -45q-3 -31 8.5 -54.5t36 -38t50 -23.5t60.5 -19q13 -3 19 -5q89 -26 160 -77t70 -105q-1 -75 -41 -125.5t-85 -71.5 q-52 -24 -122 -30.5t-150 12t-142 63.5l90 87q48 -29 68 -39.5t63 -22.5t93 -13q88 10 125 52.5t19 78.5q-12 21 -65 44t-141.5 52.5t-128.5 45.5zM305 748l-165 123l61 75l106 -149l103 149l61 -75z" />
<glyph unicode="&#x161;" d="M136 232q-36 12 -53.5 36t-16.5 48q2 67 59 101t130 34q99 0 190 -65l-85 -67q-84 62 -120 67q-21 4 -47.5 -7t-28.5 -30q-3 -28 37 -48.5t91.5 -33t99 -42t56.5 -72.5q-3 -53 -37.5 -89t-80.5 -50t-100 -14q-108 0 -200 58l62 73q98 -49 162 -56q26 -5 71 19 q51 27 31 49q-5 6 -15 11q-76 35 -205 78zM305 518l-165 123l61 75l106 -149l103 149l61 -75z" />
<glyph unicode="&#x162;" horiz-adv-x="581" d="M25 571l-5 50l529 73l12 -119l-201 -2q-17 -151 -32 -568l-53 -4l-45 571zM369 -120l-84 -204l-78 44l79 116l-62 4q34 85 50 108z" />
<glyph unicode="&#x163;" horiz-adv-x="371" d="M11 414l-1 35l73 13l-10 127q2 1 26 11.5t50 20.5t56 19l-10 -158l88 16l18 -77l-109 -3l-13 -223q-3 -50 21 -89.5t72 -38.5v-67q-146 28 -165 155l-21 261zM289 -120l-84 -204l-78 44l79 116l-62 4q34 85 50 108z" />
<glyph unicode="&#x164;" horiz-adv-x="581" d="M25 571l-5 50l529 73l12 -119l-201 -2q-17 -151 -32 -568l-53 -4l-45 571zM290 752l-165 123l61 75l106 -149l103 149l61 -75z" />
<glyph unicode="&#x165;" horiz-adv-x="559" d="M11 414l-1 35l73 13l-10 127q2 1 26 11.5t50 20.5t56 19l-10 -158l88 16l18 -77l-109 -3l-13 -223q-3 -50 21 -89.5t72 -38.5v-67q-146 28 -165 155l-21 261zM526 625l-84 -204l-78 44l79 116l-62 4q34 85 50 108z" />
<glyph unicode="&#x166;" horiz-adv-x="581" d="M421 368l-79 -6q-5 -85 -14 -357l-53 -4l-28 354l-90 -7v73l85 -3l-12 154l-205 -1l-5 50l529 73l12 -119l-201 -2q-9 -79 -15 -159l76 -3v-43z" />
<glyph unicode="&#x167;" horiz-adv-x="371" d="M281 268l-98 -8l-4 -65q-3 -50 21 -89.5t72 -38.5v-67q-146 28 -165 155l-8 99l-82 -6v73l77 -3l-8 98l-75 -2l-1 35l73 13l-10 127q2 1 26 11.5t50 20.5t56 19l-10 -158l88 16l18 -77l-109 -3l-6 -104l95 -3v-43z" />
<glyph unicode="&#x168;" horiz-adv-x="746" d="M569 313l-26 368q20 -5 39 -11.5t32 -13t27 -14.5t20.5 -12.5t15.5 -11.5l9 -6l-24 -307q-17 -96 -27 -124q-42 -119 -147 -160q-51 -19 -115 -21.5t-118 14.5q-108 34 -156 149q-23 58 -35 145l-24 304l9 6q9 7 15.5 11.5t20.5 12.5t27 14.5t32 13t39 11.5 q-18 -82 -20 -219.5t16 -230.5q12 -61 40 -102t63.5 -56t75.5 -15t78 21.5t68.5 53t48 79t16.5 101.5zM245 785l-43 44q9 26 36 43.5t58 17.5q19 0 44 -16.5t46 -33t42.5 -26.5t39 5t29.5 60l47 -20q-14 -49 -57.5 -84.5t-84.5 -24.5q-13 3 -36 22t-40.5 33.5t-40 12 t-40.5 -32.5z" />
<glyph unicode="&#x169;" horiz-adv-x="602" d="M390 453q62 -18 142 -51l-47 -387l-47 -19l-6 68q-53 -49 -127 -61q-73 -11 -127.5 22t-84.5 91q-28 54 -43.5 124t-17.5 112l-2 43l127 51q-1 -11 -3 -30t-2.5 -71t3.5 -96t18.5 -90t38.5 -68q32 -32 97.5 -26t117.5 50q-23 232 -37 338zM173 561l-43 44q9 26 36 43.5 t58 17.5q19 0 44 -16.5t46 -33t42.5 -26.5t39 5t29.5 60l47 -20q-14 -49 -57.5 -84.5t-84.5 -24.5q-13 3 -36 22t-40.5 33.5t-40 12t-40.5 -32.5z" />
<glyph unicode="&#x16a;" horiz-adv-x="746" d="M569 313l-26 368q20 -5 39 -11.5t32 -13t27 -14.5t20.5 -12.5t15.5 -11.5l9 -6l-24 -307q-17 -96 -27 -124q-42 -119 -147 -160q-51 -19 -115 -21.5t-118 14.5q-108 34 -156 149q-23 58 -35 145l-24 304l9 6q9 7 15.5 11.5t20.5 12.5t27 14.5t32 13t39 11.5 q-18 -82 -20 -219.5t16 -230.5q12 -61 40 -102t63.5 -56t75.5 -15t78 21.5t68.5 53t48 79t16.5 101.5zM547 777l-254 -20v83l254 -10v-53z" />
<glyph unicode="&#x16b;" horiz-adv-x="602" d="M390 453q62 -18 142 -51l-47 -387l-47 -19l-6 68q-53 -49 -127 -61q-73 -11 -127.5 22t-84.5 91q-28 54 -43.5 124t-17.5 112l-2 43l127 51q-1 -11 -3 -30t-2.5 -71t3.5 -96t18.5 -90t38.5 -68q32 -32 97.5 -26t117.5 50q-23 232 -37 338zM447 537l-254 -20v83l254 -10 v-53z" />
<glyph unicode="&#x16c;" horiz-adv-x="746" d="M569 313l-26 368q20 -5 39 -11.5t32 -13t27 -14.5t20.5 -12.5t15.5 -11.5l9 -6l-24 -307q-17 -96 -27 -124q-42 -119 -147 -160q-51 -19 -115 -21.5t-118 14.5q-108 34 -156 149q-23 58 -35 145l-24 304l9 6q9 7 15.5 11.5t20.5 12.5t27 14.5t32 13t39 11.5 q-18 -82 -20 -219.5t16 -230.5q12 -61 40 -102t63.5 -56t75.5 -15t78 21.5t68.5 53t48 79t16.5 101.5zM199 931v3l89 -7q-2 -23 0 -46q13 -74 86 -74q72 1 84 79q1 15 -1 41l94 7q5 -82 -44 -131.5t-129 -49.5q-85 0 -136 48.5t-43 129.5z" />
<glyph unicode="&#x16d;" horiz-adv-x="602" d="M390 453q62 -18 142 -51l-47 -387l-47 -19l-6 68q-53 -49 -127 -61q-73 -11 -127.5 22t-84.5 91q-28 54 -43.5 124t-17.5 112l-2 43l127 51q-1 -11 -3 -30t-2.5 -71t3.5 -96t18.5 -90t38.5 -68q32 -32 97.5 -26t117.5 50q-23 232 -37 338zM127 697v3l89 -7q-2 -23 0 -46 q13 -74 86 -74q72 1 84 79q1 15 -1 41l94 7q5 -82 -44 -131.5t-129 -49.5q-85 0 -136 48.5t-43 129.5z" />
<glyph unicode="&#x16e;" horiz-adv-x="746" d="M569 313l-26 368q20 -5 39 -11.5t32 -13t27 -14.5t20.5 -12.5t15.5 -11.5l9 -6l-24 -307q-17 -96 -27 -124q-42 -119 -147 -160q-51 -19 -115 -21.5t-118 14.5q-108 34 -156 149q-23 58 -35 145l-24 304l9 6q9 7 15.5 11.5t20.5 12.5t27 14.5t32 13t39 11.5 q-18 -82 -20 -219.5t16 -230.5q12 -61 40 -102t63.5 -56t75.5 -15t78 21.5t68.5 53t48 79t16.5 101.5zM244 886q7 67 65 98t117 9q71 -28 77 -101q7 -61 -29.5 -97.5t-96.5 -36.5q-64 0 -102 34.5t-31 93.5zM372 786q31 0 51 20.5t24 48.5q7 48 -24 78.5t-82 7.5 q-54 -24 -43 -90q5 -29 24.5 -47t49.5 -18z" />
<glyph unicode="&#x16f;" horiz-adv-x="602" d="M390 453q62 -18 142 -51l-47 -387l-47 -19l-6 68q-53 -49 -127 -61q-73 -11 -127.5 22t-84.5 91q-28 54 -43.5 124t-17.5 112l-2 43l127 51q-1 -11 -3 -30t-2.5 -71t3.5 -96t18.5 -90t38.5 -68q32 -32 97.5 -26t117.5 50q-23 232 -37 338zM172 652q7 67 65 98t117 9 q71 -28 77 -101q7 -61 -29.5 -97.5t-96.5 -36.5q-64 0 -102 34.5t-31 93.5zM300 552q31 0 51 20.5t24 48.5q7 48 -24 78.5t-82 7.5q-54 -24 -43 -90q5 -29 24.5 -47t49.5 -18z" />
<glyph unicode="&#x170;" horiz-adv-x="746" d="M569 313l-26 368q20 -5 39 -11.5t32 -13t27 -14.5t20.5 -12.5t15.5 -11.5l9 -6l-24 -307q-17 -96 -27 -124q-42 -119 -147 -160q-51 -19 -115 -21.5t-118 14.5q-108 34 -156 149q-23 58 -35 145l-24 304l9 6q9 7 15.5 11.5t20.5 12.5t27 14.5t32 13t39 11.5 q-18 -82 -20 -219.5t16 -230.5q12 -61 40 -102t63.5 -56t75.5 -15t78 21.5t68.5 53t48 79t16.5 101.5zM234 756l-30 27l68 199l97 -70zM447 756l-30 27l68 199l97 -70z" />
<glyph unicode="&#x171;" horiz-adv-x="602" d="M390 453q62 -18 142 -51l-47 -387l-47 -19l-6 68q-53 -49 -127 -61q-73 -11 -127.5 22t-84.5 91q-28 54 -43.5 124t-17.5 112l-2 43l127 51q-1 -11 -3 -30t-2.5 -71t3.5 -96t18.5 -90t38.5 -68q32 -32 97.5 -26t117.5 50q-23 232 -37 338zM375 522l-30 27l68 199l97 -70z M162 522l-30 27l68 199l97 -70z" />
<glyph unicode="&#x172;" horiz-adv-x="746" d="M569 313l-26 368q20 -5 39 -11.5t32 -13t27 -14.5t20.5 -12.5t15.5 -11.5l9 -6l-24 -307q-17 -96 -27 -124q-42 -119 -147 -160q-48 -18 -108 -21l5 -12q-17 -5 -43 -16q-30 -18 -41 -54.5t3 -72.5q26 -66 104 -50q8 2 38 15l40 -85q-76 -33 -139.5 -5t-91.5 102 q-21 53 -15 102t38 83q-16 4 -23 7q-108 34 -156 149q-23 58 -35 145l-24 304l9 6q9 7 15.5 11.5t20.5 12.5t27 14.5t32 13t39 11.5q-18 -82 -20 -219.5t16 -230.5q12 -61 40 -102t63.5 -56t75.5 -15t78 21.5t68.5 53t48 79t16.5 101.5z" />
<glyph unicode="&#x173;" horiz-adv-x="602" d="M390 453q62 -18 142 -51l-47 -387l-47 -19l-6 68q-45 -42 -108 -58l7 -18q-17 -5 -43 -16q-30 -18 -41 -54.5t3 -72.5q26 -66 104 -50q8 2 38 15l40 -85q-76 -33 -139.5 -5t-91.5 102q-44 113 22 184q-87 23 -130 110q-28 54 -43.5 124t-17.5 112l-2 43l127 51 q-1 -11 -3 -30t-2.5 -71t3.5 -96t18.5 -90t38.5 -68q32 -32 97.5 -26t117.5 50q-23 232 -37 338z" />
<glyph unicode="&#x174;" horiz-adv-x="917" d="M897 660l-298 -660q-43 111 -133 329l-147 -329q-21 54 -135 310.5t-164 359.5l96 14l192 -476l96 270l-84 192l106 14l162 -476l170 473zM459 960l165 -123l-61 -75l-106 149l-103 -149l-61 75z" />
<glyph unicode="&#x175;" horiz-adv-x="802" d="M782 439l-264 -435q-41 85 -119 217l-131 -217l-248 437l112 10l129 -287q12 29 43 87t37 70q-71 119 -71 120l102 10l139 -287q20 47 65 146.5t63 143.5zM401 726l165 -123l-61 -75l-106 149l-103 -149l-61 75z" />
<glyph unicode="&#x176;" horiz-adv-x="644" d="M624 626l-269 -279q-13 -203 -18 -343l-53 -4l-30 372v1l-234 266l112 36l169 -259l196 271zM322 950l165 -123l-61 -75l-106 149l-103 -149l-61 75z" />
<glyph unicode="&#x177;" horiz-adv-x="592" d="M522 404l-34 -437q-16 -70 -57 -111q-35 -32 -94.5 -49t-115.5 -16t-109 7l19 87q127 -30 192 -16q75 16 96 84q2 14 -1 99q-53 -40 -113 -49q-73 -11 -127.5 22t-84.5 91q-28 54 -43.5 124t-17.5 112l-2 43l127 51q-1 -11 -3 -30t-2.5 -71t3.5 -96t18.5 -90t38.5 -68 q30 -30 90.5 -27t112.5 41q-16 213 -35 350q62 -18 142 -51zM296 726l165 -123l-61 -75l-106 149l-103 -149l-61 75z" />
<glyph unicode="&#x178;" horiz-adv-x="644" d="M624 626l-269 -279q-13 -203 -18 -343l-53 -4l-30 373l-234 266l112 36l169 -259l196 271zM183 819q0 29 19.5 50.5t47.5 21.5t48 -21.5t20 -50.5q0 -30 -20 -50.5t-48 -20.5t-47.5 20.5t-19.5 50.5zM383 819q0 29 19.5 50.5t47.5 21.5t48 -21.5t20 -50.5 q0 -30 -20 -50.5t-48 -20.5t-47.5 20.5t-19.5 50.5z" />
<glyph unicode="&#x179;" horiz-adv-x="593" d="M543 599l-5 -53l-437 -487l430 72l12 -129l-495 -3l-18 100l355 451l-342 2l12 129zM244 756l-30 27l68 199l97 -70z" />
<glyph unicode="&#x17a;" horiz-adv-x="511" d="M420 374l-5 -53l-296 -262l310 62l12 -119l-385 -3l-18 70l274 256l-282 12l12 119zM203 521l-30 27l68 199l97 -70z" />
<glyph unicode="&#x17b;" horiz-adv-x="593" d="M543 599l-5 -53l-437 -487l430 72l12 -129l-495 -3l-18 100l355 451l-342 2l12 129zM294 756q-30 0 -49.5 18t-24.5 47q-11 66 43 90q51 23 82 -7.5t24 -78.5q-4 -28 -24 -48.5t-51 -20.5z" />
<glyph unicode="&#x17c;" horiz-adv-x="511" d="M420 374l-5 -53l-296 -262l310 62l12 -119l-385 -3l-18 70l274 256l-282 12l12 119zM253 522q-30 0 -49.5 18t-24.5 47q-11 66 43 90q51 23 82 -7.5t24 -78.5q-4 -28 -24 -48.5t-51 -20.5z" />
<glyph unicode="&#x17d;" horiz-adv-x="593" d="M543 599l-5 -53l-437 -487l430 72l12 -129l-495 -3l-18 100l355 451l-342 2l12 129zM305 748l-165 123l61 75l106 -149l103 149l61 -75z" />
<glyph unicode="&#x17e;" horiz-adv-x="511" d="M420 374l-5 -53l-296 -262l310 62l12 -119l-385 -3l-18 70l274 256l-282 12l12 119zM255 518l-165 123l61 75l106 -149l103 149l61 -75z" />
<glyph unicode="&#x17f;" horiz-adv-x="332" d="M41 416l-4 45l-3 42q-2 64 28 105.5t78.5 55t99.5 13.5t102 -12v-89q-76 9 -131.5 -13t-63.5 -86l-4 -59q-5 -77 -10 -171.5t-8.5 -167.5t-3.5 -79l-1 -1l-46 20z" />
<glyph unicode="&#x192;" horiz-adv-x="386" d="M-8 -168v61l132 -10l-29 533l-94 -2l-1 35l91 12l-3 42q-2 64 28 105.5t78.5 55t99.5 13.5t102 -12v-89q-76 9 -131.5 -13t-63.5 -86l152 21l18 -77l-174 -3q-5 -77 -10 -222.5t-8 -265.5t-4 -130l-1 -1l-30 13z" />
<glyph unicode="&#x2c6;" horiz-adv-x="397" d="M199 726l165 -123l-61 -75l-106 149l-103 -149l-61 75z" />
<glyph unicode="&#x2dc;" horiz-adv-x="408" d="M76 591l-43 44q9 26 36 43.5t58 17.5q19 0 44 -16.5t46 -33t42.5 -26.5t39 5t29.5 60l47 -20q-14 -49 -57.5 -84.5t-84.5 -24.5q-13 3 -36 22t-40.5 33.5t-40 12t-40.5 -32.5z" />
<glyph unicode="&#x2013;" horiz-adv-x="342" d="M309 358l-254 -20v83l254 -10v-53z" />
<glyph unicode="&#x2014;" horiz-adv-x="542" d="M509 358l-454 -20v83l454 -10v-53z" />
<glyph unicode="&#x2018;" horiz-adv-x="239" d="M33 489l84 204l78 -44l-79 -116l62 -4q-34 -85 -50 -108z" />
<glyph unicode="&#x2019;" horiz-adv-x="239" d="M195 625l-84 -204l-78 44l79 116l-62 4q34 85 50 108z" />
<glyph unicode="&#x201a;" horiz-adv-x="225" d="M192 55l-84 -204l-78 44l79 116l-62 4q34 85 50 108z" />
<glyph unicode="&#x201c;" horiz-adv-x="419" d="M213 489l84 204l78 -44l-79 -116l62 -4q-34 -85 -50 -108zM33 489l84 204l78 -44l-79 -116l62 -4q-34 -85 -50 -108z" />
<glyph unicode="&#x201d;" horiz-adv-x="419" d="M195 625l-84 -204l-78 44l79 116l-62 4q34 85 50 108zM375 625l-84 -204l-78 44l79 116l-62 4q34 85 50 108z" />
<glyph unicode="&#x201e;" horiz-adv-x="425" d="M192 55l-84 -204l-78 44l79 116l-62 4q34 85 50 108zM392 55l-84 -204l-78 44l79 116l-62 4q34 85 50 108z" />
<glyph unicode="&#x2020;" horiz-adv-x="400" d="M362 368l-130 -8l-31 -559l-43 29l-7 525l-113 -7v73l112 -4l-2 221l103 50l-16 -273l127 -4v-43z" />
<glyph unicode="&#x2021;" horiz-adv-x="400" d="M352 74l-136 -9l-15 -314l-43 29l-4 281l-106 -7v73l106 -4l-3 282l-103 -7v73l102 -4l-2 241l103 50l-15 -294l116 -3v-43l-118 -8l-15 -289l133 -4v-43z" />
<glyph unicode="&#x2022;" horiz-adv-x="256" d="M33 386q0 40 28 68.5t67 28.5t67 -28.5t28 -68.5t-28 -68.5t-67 -28.5t-67 28.5t-28 68.5z" />
<glyph unicode="&#x2026;" horiz-adv-x="729" d="M55 -18v80l111 55v-107zM298 -18v80l111 55v-107zM541 -18v80l111 55v-107z" />
<glyph unicode="&#x2030;" horiz-adv-x="812" d="M323 596q10 -42 3 -81q-12 -55 -53.5 -87t-87.5 -22t-70 56.5t-12 101.5t53.5 87t87.5 22q57 -12 79 -77zM198 455q25 -5 48 16t29 51q7 29 -5.5 53.5t-37.5 29.5q-26 5 -47.5 -11.5t-27.5 -45.5q-4 -21 -3.5 -40t12 -34t32.5 -19zM33 184l594 472l55 -90l-610 -447z M493 196q10 -42 3 -81q-12 -55 -53.5 -87t-87.5 -22t-70 56.5t-12 101.5t53.5 87t87.5 22q57 -12 79 -77zM367 55q25 -5 47.5 16t28.5 52q7 29 -5.5 53.5t-36.5 29.5q-25 5 -46.5 -11.5t-27.5 -45.5q-8 -34 1 -61t39 -33zM773 196q10 -42 3 -81q-12 -55 -53.5 -87t-87.5 -22 t-70 56.5t-12 101.5t53.5 87t87.5 22q57 -12 79 -77zM647 55q25 -5 47.5 16t28.5 52q7 29 -5.5 53.5t-36.5 29.5q-25 5 -46.5 -11.5t-27.5 -45.5q-8 -34 1 -61t39 -33z" />
<glyph unicode="&#x2039;" horiz-adv-x="395" d="M362 444l-294 -151l294 -164l-53 -78l-276 219v33l276 219z" />
<glyph unicode="&#x203a;" horiz-adv-x="395" d="M327 293l-294 151l53 78l276 -219v-33l-276 -219l-53 78z" />
<glyph unicode="&#x20ac;" horiz-adv-x="556" d="M397 244l-183 -10q0 -4 1 -6q39 -180 275 -171l-30 -57q-133 -23 -231 41.5t-129 185.5l-67 -3v73l56 -2q-2 26 1 66l-57 -3v73l67 -2q31 127 129.5 197.5t230.5 50.5l30 -129q-97 14 -164.5 -20t-97.5 -103l169 -4v-43l-187 -11q-7 -39 -4 -75l191 -5v-43z" />
<glyph unicode="&#x2122;" horiz-adv-x="671" d="M574 626l-85 -191h-7l-83 191q-6 -56 -15 -288l-27 -2l-24 306q1 0 8.5 5.5t15 9.5t21 10t27.5 9l81 -153l82 153q30 -7 70 -34l-24 -306l-26 2q0 8 -1 44t-4 98.5t-9 145.5zM35 621l-2 25l264 37l6 -60l-100 -1q-10 -82 -16 -284l-27 -2l-22 286z" />
<glyph unicode="&#x25fc;" horiz-adv-x="455" d="M0 455h455v-455h-455v455z" />
</font>
</defs>
</svg>
